<?xml version="1.0" encoding="UTF-8"?>
<svg xmlns="http://www.w3.org/2000/svg" xmlns:xlink="http://www.w3.org/1999/xlink" width="800px" height="500px" viewBox="0 0 535 500" version="1.1">
<g id="surface1">
<path style=" stroke:none;fill-rule:nonzero;fill:rgb(24.705882%,23.921569%,33.72549%);fill-opacity:1;" d="M 407.722656 118.820312 L 404.976562 118.820312 L 404.976562 43.558594 C 404.976562 19.503906 385.484375 0 361.441406 0 L 202.082031 0 C 178.039062 0 158.546875 19.503906 158.546875 43.558594 L 158.546875 456.441406 C 158.546875 480.5 178.039062 500 202.082031 500 L 361.445312 500 C 385.488281 500 404.976562 480.5 404.976562 456.441406 L 404.976562 172.390625 L 407.722656 172.390625 Z M 407.722656 118.820312 "/>
<path style=" stroke:none;fill-rule:nonzero;fill:rgb(90.196078%,90.196078%,90.196078%);fill-opacity:1;" d="M 396.101562 40.644531 L 396.101562 459.359375 C 396.097656 477.597656 381.324219 492.382812 363.097656 492.390625 L 200.460938 492.390625 C 182.222656 492.390625 167.4375 477.601562 167.433594 459.355469 L 167.433594 40.644531 C 167.441406 22.398438 182.226562 7.609375 200.460938 7.613281 L 220.1875 7.613281 C 218.222656 12.453125 218.789062 17.957031 221.703125 22.292969 C 224.613281 26.628906 229.492188 29.234375 234.714844 29.238281 L 327.433594 29.238281 C 332.65625 29.230469 337.53125 26.628906 340.445312 22.289062 C 343.355469 17.953125 343.921875 12.449219 341.953125 7.609375 L 363.085938 7.609375 C 381.316406 7.613281 396.09375 22.394531 396.097656 40.632812 Z M 396.101562 40.644531 "/>
<path style=" stroke:none;fill-rule:nonzero;fill:rgb(100%,100%,100%);fill-opacity:1;" d="M 378.773438 470.535156 L 184.761719 470.535156 C 181.3125 470.53125 178.519531 467.734375 178.515625 464.285156 L 178.515625 56.195312 C 178.519531 52.746094 181.3125 49.949219 184.761719 49.945312 L 378.773438 49.945312 C 382.222656 49.949219 385.015625 52.746094 385.019531 56.195312 L 385.019531 464.285156 C 385.015625 467.734375 382.222656 470.53125 378.773438 470.535156 Z M 378.773438 470.535156 "/>
<path style=" stroke:none;fill-rule:nonzero;fill:rgb(90.196078%,90.196078%,90.196078%);fill-opacity:1;" d="M 334.484375 134.242188 C 334.484375 163.78125 310.554688 187.726562 281.035156 187.726562 C 251.511719 187.726562 227.582031 163.78125 227.582031 134.242188 C 227.582031 104.707031 251.511719 80.761719 281.035156 80.761719 C 310.554688 80.761719 334.484375 104.707031 334.484375 134.242188 Z M 334.484375 134.242188 "/>
<path style=" stroke:none;fill-rule:nonzero;fill:rgb(100%,100%,100%);fill-opacity:1;" d="M 326.515625 134.242188 C 326.515625 159.78125 305.824219 180.484375 280.296875 180.484375 C 254.773438 180.484375 234.082031 159.78125 234.082031 134.242188 C 234.082031 108.703125 254.773438 88 280.296875 88 C 305.824219 88 326.515625 108.703125 326.515625 134.242188 Z M 326.515625 134.242188 "/>
<path style=" stroke:none;fill-rule:nonzero;fill:rgb(12.156863%,12.156863%,18.431373%);fill-opacity:1;" d="M 281.328125 108.015625 C 266.773438 108.015625 254.976562 119.820312 254.976562 134.378906 C 254.976562 148.941406 266.773438 160.746094 281.328125 160.746094 C 295.878906 160.746094 307.675781 148.941406 307.675781 134.378906 C 307.675781 119.820312 295.878906 108.015625 281.328125 108.015625 Z M 281.328125 115.925781 C 285.691406 115.925781 289.230469 119.464844 289.230469 123.835938 C 289.230469 128.203125 285.691406 131.742188 281.328125 131.742188 C 276.960938 131.742188 273.421875 128.203125 273.421875 123.835938 C 273.421875 119.464844 276.960938 115.925781 281.328125 115.925781 Z M 281.328125 154 C 274.988281 153.972656 269.070312 150.8125 265.515625 145.558594 C 265.644531 140.285156 276.054688 137.382812 281.328125 137.382812 C 286.597656 137.382812 297.011719 140.285156 297.136719 145.558594 C 293.582031 150.808594 287.667969 153.96875 281.328125 154.003906 Z M 281.328125 154 "/>
<path style=" stroke:none;fill-rule:nonzero;fill:rgb(90.196078%,90.196078%,90.196078%);fill-opacity:1;" d="M 232.671875 205.699219 L 325.148438 205.699219 L 325.148438 212.652344 L 232.671875 212.652344 Z M 232.671875 205.699219 "/>
<path style=" stroke:none;fill-rule:nonzero;fill:rgb(90.196078%,90.196078%,90.196078%);fill-opacity:1;" d="M 220.296875 223.769531 L 336.679688 223.769531 L 336.679688 230.722656 L 220.296875 230.722656 Z M 220.296875 223.769531 "/>
<path style=" stroke:none;fill-rule:nonzero;fill:rgb(90.196078%,90.196078%,90.196078%);fill-opacity:1;" d="M 199.792969 275.679688 L 363.742188 275.679688 L 363.742188 439.71875 L 199.792969 439.71875 Z M 199.792969 275.679688 "/>
<path style=" stroke:none;fill-rule:nonzero;fill:rgb(100%,100%,100%);fill-opacity:1;" d="M 202.398438 279.148438 L 359.414062 279.148438 L 359.414062 436.25 L 202.398438 436.25 Z M 202.398438 279.148438 "/>
<path style=" stroke:none;fill-rule:nonzero;fill:rgb(90.196078%,90.196078%,90.196078%);fill-opacity:1;" d="M 234.734375 294.3125 L 295.855469 294.3125 L 295.855469 298.910156 L 234.734375 298.910156 Z M 234.734375 294.3125 "/>
<path style=" stroke:none;fill-rule:nonzero;fill:rgb(12.156863%,12.156863%,18.431373%);fill-opacity:1;" d="M 234.734375 307.808594 L 329.117188 307.808594 L 329.117188 312.402344 L 234.734375 312.402344 Z M 234.734375 307.808594 "/>
<path style=" stroke:none;fill-rule:nonzero;fill:rgb(90.196078%,90.196078%,90.196078%);fill-opacity:1;" d="M 235.714844 320.660156 L 312.636719 320.660156 L 312.636719 325.253906 L 235.714844 325.253906 Z M 235.714844 320.660156 "/>
<path style=" stroke:none;fill-rule:nonzero;fill:rgb(90.196078%,90.196078%,90.196078%);fill-opacity:1;" d="M 234.734375 334.757812 L 279.640625 334.757812 L 279.640625 339.355469 L 234.734375 339.355469 Z M 234.734375 334.757812 "/>
<path style=" stroke:none;fill-rule:nonzero;fill:rgb(12.156863%,12.156863%,18.431373%);fill-opacity:1;" d="M 234.734375 348.53125 L 302.507812 348.53125 L 302.507812 353.128906 L 234.734375 353.128906 Z M 234.734375 348.53125 "/>
<path style=" stroke:none;fill-rule:nonzero;fill:rgb(90.196078%,90.196078%,90.196078%);fill-opacity:1;" d="M 234.734375 362.390625 L 295.855469 362.390625 L 295.855469 366.988281 L 234.734375 366.988281 Z M 234.734375 362.390625 "/>
<path style=" stroke:none;fill-rule:nonzero;fill:rgb(12.156863%,12.156863%,18.431373%);fill-opacity:1;" d="M 234.734375 375.882812 L 329.117188 375.882812 L 329.117188 380.480469 L 234.734375 380.480469 Z M 234.734375 375.882812 "/>
<path style=" stroke:none;fill-rule:nonzero;fill:rgb(90.196078%,90.196078%,90.196078%);fill-opacity:1;" d="M 235.714844 388.734375 L 312.636719 388.734375 L 312.636719 393.332031 L 235.714844 393.332031 Z M 235.714844 388.734375 "/>
<path style=" stroke:none;fill-rule:nonzero;fill:rgb(90.196078%,90.196078%,90.196078%);fill-opacity:1;" d="M 234.734375 402.835938 L 279.640625 402.835938 L 279.640625 407.429688 L 234.734375 407.429688 Z M 234.734375 402.835938 "/>
<path style=" stroke:none;fill-rule:nonzero;fill:rgb(90.196078%,90.196078%,90.196078%);fill-opacity:1;" d="M 234.734375 416.609375 L 302.507812 416.609375 L 302.507812 421.203125 L 234.734375 421.203125 Z M 234.734375 416.609375 "/>
<path style=" stroke:none;fill-rule:nonzero;fill:rgb(100%,72.156863%,72.156863%);fill-opacity:1;" d="M 509.109375 356.636719 C 507.269531 359.855469 503.171875 360.972656 499.953125 359.132812 C 496.738281 357.292969 495.621094 353.191406 497.460938 349.972656 C 497.472656 349.945312 497.488281 349.921875 497.503906 349.894531 C 497.691406 349.578125 497.902344 349.28125 498.136719 348.996094 L 492.492188 308.746094 L 492.324219 307.542969 L 491.175781 299.328125 L 491.007812 298.144531 L 491.632812 298.171875 L 502.566406 298.671875 L 505.5 298.804688 L 505.867188 306.296875 L 507.949219 348.421875 C 510.183594 350.5625 510.664062 353.960938 509.109375 356.636719 Z M 509.109375 356.636719 "/>
<path style=" stroke:none;fill-rule:nonzero;fill:rgb(12.156863%,12.156863%,18.431373%);fill-opacity:1;" d="M 492.355469 307.90625 L 506.242188 306.632812 C 507.742188 306.488281 508.84375 305.164062 508.714844 303.664062 L 506.140625 274.773438 C 505.625 268.976562 500.511719 264.699219 494.71875 265.214844 C 488.929688 265.734375 484.652344 270.851562 485.167969 276.644531 C 485.1875 276.84375 485.210938 277.042969 485.238281 277.242188 L 489.402344 305.578125 C 489.601562 306.921875 490.75 307.914062 492.105469 307.917969 C 492.191406 307.917969 492.273438 307.914062 492.355469 307.90625 Z M 492.355469 307.90625 "/>
<path style=" stroke:none;fill-rule:nonzero;fill:rgb(12.156863%,12.156863%,18.431373%);fill-opacity:1;" d="M 502.882812 284.566406 C 505.765625 276.386719 502.859375 267.285156 495.769531 262.292969 C 490.53125 258.710938 483.367188 257.421875 475.652344 266.613281 C 460.21875 284.996094 456.175781 305.21875 456.175781 305.21875 L 487.777344 310.363281 C 487.777344 310.363281 498.523438 297.222656 502.882812 284.566406 Z M 502.882812 284.566406 "/>
<path style=" stroke:none;fill-rule:nonzero;fill:rgb(100%,72.156863%,72.156863%);fill-opacity:1;" d="M 451.773438 491.628906 L 442.761719 491.628906 L 438.476562 456.859375 L 451.773438 456.859375 Z M 451.773438 491.628906 "/>
<path style=" stroke:none;fill-rule:nonzero;fill:rgb(18.431373%,18.039216%,25.490196%);fill-opacity:1;" d="M 425.386719 500 L 453.703125 500 L 453.703125 489.050781 L 436.328125 489.050781 C 430.285156 489.050781 425.386719 493.953125 425.386719 500 Z M 425.386719 500 "/>
<path style=" stroke:none;fill-rule:nonzero;fill:rgb(100%,72.156863%,72.156863%);fill-opacity:1;" d="M 525.84375 483.765625 L 517.289062 486.59375 L 502.3125 454.929688 L 514.9375 450.753906 Z M 525.84375 483.765625 "/>
<path style=" stroke:none;fill-rule:nonzero;fill:rgb(18.431373%,18.039216%,25.490196%);fill-opacity:1;" d="M 503.417969 500 L 530.304688 491.105469 L 526.871094 480.714844 L 510.371094 486.167969 C 504.636719 488.066406 501.519531 494.257812 503.417969 500 Z M 503.417969 500 "/>
<path style=" stroke:none;fill-rule:nonzero;fill:rgb(100%,72.156863%,72.156863%);fill-opacity:1;" d="M 501.09375 235.117188 C 501.09375 245.09375 493.011719 253.179688 483.042969 253.179688 C 473.074219 253.179688 464.996094 245.09375 464.996094 235.117188 C 464.996094 225.144531 473.074219 217.058594 483.042969 217.058594 C 493.011719 217.058594 501.09375 225.144531 501.09375 235.117188 Z M 501.09375 235.117188 "/>
<path style=" stroke:none;fill-rule:nonzero;fill:rgb(18.431373%,18.039216%,25.490196%);fill-opacity:1;" d="M 467.242188 481.949219 L 475.605469 426.695312 C 475.792969 425.480469 476.808594 424.566406 478.039062 424.511719 C 479.265625 424.457031 480.359375 425.28125 480.648438 426.476562 L 493.390625 479.132812 C 493.808594 480.804688 495.429688 481.882812 497.128906 481.621094 L 532.277344 475.96875 C 533.21875 475.816406 534.050781 475.265625 534.558594 474.457031 C 535.0625 473.644531 535.195312 472.65625 534.917969 471.742188 L 489.089844 320.566406 C 488.957031 320.136719 488.941406 319.679688 489.042969 319.242188 L 490.570312 312.625 C 490.914062 311.148438 490.207031 309.625 488.859375 308.9375 C 482.617188 305.75 466.8125 299.128906 454.882812 306.382812 C 454.101562 306.859375 453.550781 307.636719 453.355469 308.535156 L 417.554688 476.894531 C 417.359375 477.820312 417.566406 478.785156 418.128906 479.546875 C 418.691406 480.308594 419.554688 480.796875 420.496094 480.878906 L 463.675781 484.75 C 463.773438 484.757812 463.871094 484.761719 463.96875 484.761719 C 465.601562 484.757812 466.992188 483.566406 467.238281 481.949219 Z M 467.242188 481.949219 "/>
<path style=" stroke:none;fill-rule:nonzero;fill:rgb(18.431373%,18.039216%,25.490196%);fill-opacity:1;" d="M 495.011719 222.359375 C 493.652344 221.539062 492.445312 220.488281 491.445312 219.257812 C 490.441406 217.988281 490.171875 216.289062 490.730469 214.769531 C 491.644531 212.757812 494.351562 212.125 496.453125 212.804688 C 498.554688 213.488281 500.175781 215.140625 501.710938 216.726562 C 503.0625 218.125 504.453125 219.589844 505.089844 221.425781 C 505.730469 223.265625 505.402344 225.59375 503.808594 226.710938 C 502.242188 227.804688 499.992188 227.355469 498.488281 226.179688 C 496.980469 225.007812 496.050781 223.261719 495.160156 221.570312 Z M 495.011719 222.359375 "/>
<path style=" stroke:none;fill-rule:nonzero;fill:rgb(18.431373%,18.039216%,25.490196%);fill-opacity:1;" d="M 501.125 217.214844 C 501.226562 212.125 507.023438 208.476562 512.03125 209.378906 C 517.035156 210.28125 520.882812 214.550781 522.8125 219.261719 C 526.878906 229.214844 523.824219 240.570312 519.902344 250.585938 C 515.984375 260.601562 511.128906 270.761719 511.703125 281.5 C 512.492188 293.320312 519.6875 303.765625 530.453125 308.703125 C 524.804688 311.265625 518.050781 308.621094 513.300781 304.625 C 502.757812 295.753906 498.6875 279.957031 503.628906 267.09375 C 506.066406 260.746094 510.363281 255.316406 513.71875 249.40625 C 517.070312 243.492188 519.53125 236.523438 517.800781 229.949219 C 516.066406 223.375 508.699219 218.054688 502.398438 220.597656 Z M 501.125 217.214844 "/>
<path style=" stroke:none;fill-rule:nonzero;fill:rgb(18.431373%,18.039216%,25.490196%);fill-opacity:1;" d="M 481.960938 243.132812 C 483.535156 240.472656 485.121094 236.980469 482.246094 234.652344 C 480.984375 233.679688 479.378906 233.253906 477.800781 233.476562 C 474.558594 233.867188 471.027344 234.03125 467.886719 232.851562 C 465.511719 232.03125 463.566406 230.285156 462.5 228.003906 C 460.882812 224.164062 462.90625 219.496094 466.292969 217.066406 C 470.53125 214.140625 476.109375 214.042969 480.445312 216.816406 C 484.832031 214.878906 490.15625 215.742188 494.144531 218.410156 C 498.128906 221.078125 500.855469 225.351562 502.335938 229.917969 C 503.703125 233.84375 503.9375 238.078125 503.015625 242.132812 C 501.511719 247.859375 497.308594 252.492188 491.761719 254.542969 C 489.59375 255.398438 487.132812 255.035156 485.304688 253.589844 C 485.304688 253.589844 482.820312 251.417969 482.039062 248.800781 C 481.441406 246.785156 481.121094 244.554688 481.960938 243.132812 Z M 481.960938 243.132812 "/>
<path style=" stroke:none;fill-rule:nonzero;fill:rgb(100%,72.156863%,72.156863%);fill-opacity:1;" d="M 428.417969 259.246094 C 428.507812 259.644531 428.566406 260.046875 428.59375 260.453125 L 460.160156 278.675781 L 467.832031 274.253906 L 476.011719 284.96875 L 463.191406 294.117188 C 461.0625 295.632812 458.1875 295.5625 456.136719 293.945312 L 423.578125 268.246094 C 420.570312 269.363281 417.1875 268.5 415.078125 266.078125 C 412.972656 263.65625 412.582031 260.183594 414.101562 257.355469 C 415.621094 254.527344 418.730469 252.933594 421.910156 253.355469 C 425.089844 253.773438 427.679688 256.121094 428.410156 259.246094 Z M 428.417969 259.246094 "/>
<path style=" stroke:none;fill-rule:nonzero;fill:rgb(12.156863%,12.156863%,18.431373%);fill-opacity:1;" d="M 461.214844 279.539062 L 471.417969 292.769531 C 472.007812 293.53125 472.894531 293.996094 473.855469 294.050781 C 474.816406 294.101562 475.75 293.734375 476.417969 293.042969 L 487.96875 281.042969 C 492.039062 278.011719 492.882812 272.253906 489.851562 268.183594 C 486.824219 264.109375 481.070312 263.265625 477 266.296875 C 476.898438 266.371094 476.800781 266.445312 476.703125 266.523438 L 462.21875 274.628906 C 461.378906 275.097656 460.785156 275.910156 460.59375 276.855469 C 460.398438 277.796875 460.625 278.777344 461.214844 279.539062 Z M 461.214844 279.539062 "/>
<path style=" stroke:none;fill-rule:nonzero;fill:rgb(62.745098%,38.039216%,41.568627%);fill-opacity:1;" d="M 90.90625 311.070312 C 90.546875 311.234375 90.199219 311.429688 89.871094 311.648438 L 56.910156 297.574219 L 55.734375 288.886719 L 42.5625 288.804688 L 43.339844 308.730469 L 86.847656 320.246094 C 86.9375 320.546875 87.046875 320.84375 87.175781 321.132812 C 88.929688 324.882812 93.382812 326.507812 97.140625 324.773438 C 100.894531 323.035156 102.546875 318.589844 100.832031 314.820312 C 99.117188 311.054688 94.683594 309.378906 90.90625 311.074219 Z M 90.90625 311.070312 "/>
<path style=" stroke:none;fill-rule:nonzero;fill:rgb(62.745098%,38.039216%,41.568627%);fill-opacity:1;" d="M 37.773438 491.628906 L 46.78125 491.628906 L 51.066406 456.859375 L 37.769531 456.859375 Z M 37.773438 491.628906 "/>
<path style=" stroke:none;fill-rule:nonzero;fill:rgb(18.431373%,18.039216%,25.490196%);fill-opacity:1;" d="M 53.21875 489.054688 L 35.839844 489.054688 L 35.839844 499.996094 L 64.15625 499.996094 C 64.15625 493.949219 59.257812 489.050781 53.21875 489.050781 Z M 53.21875 489.054688 "/>
<path style=" stroke:none;fill-rule:nonzero;fill:rgb(62.745098%,38.039216%,41.568627%);fill-opacity:1;" d="M 2.734375 489.082031 L 11.699219 489.964844 L 19.371094 455.78125 L 6.136719 454.480469 Z M 2.734375 489.082031 "/>
<path style=" stroke:none;fill-rule:nonzero;fill:rgb(18.431373%,18.039216%,25.490196%);fill-opacity:1;" d="M 18.359375 488.035156 L 1.070312 486.332031 L 0 497.222656 L 28.171875 500 C 28.765625 493.984375 24.371094 488.628906 18.359375 488.035156 Z M 18.359375 488.035156 "/>
<path style=" stroke:none;fill-rule:nonzero;fill:rgb(62.745098%,38.039216%,41.568627%);fill-opacity:1;" d="M 53.3125 233.949219 C 53.3125 243.921875 45.234375 252.007812 35.265625 252.007812 C 25.296875 252.007812 17.214844 243.921875 17.214844 233.949219 C 17.214844 223.972656 25.296875 215.886719 35.265625 215.886719 C 45.234375 215.886719 53.3125 223.972656 53.3125 233.949219 Z M 53.3125 233.949219 "/>
<path style=" stroke:none;fill-rule:nonzero;fill:rgb(18.431373%,18.039216%,25.490196%);fill-opacity:1;" d="M 48.796875 484.597656 C 50.394531 484.601562 51.765625 483.453125 52.039062 481.878906 C 56.699219 455.980469 71.945312 371.289062 72.3125 368.941406 C 72.320312 368.886719 72.324219 368.832031 72.324219 368.777344 L 72.324219 362.464844 C 72.324219 362.234375 72.25 362.007812 72.117188 361.820312 L 70.105469 359 C 69.910156 358.726562 69.601562 358.554688 69.261719 358.539062 C 57.785156 358.003906 20.183594 356.421875 18.367188 358.695312 C 16.542969 360.972656 17.191406 367.890625 17.339844 369.253906 L 17.332031 369.394531 L 0.441406 477.484375 C 0.164062 479.277344 1.382812 480.960938 3.171875 481.257812 L 13.71875 482.996094 C 15.34375 483.257812 16.914062 482.292969 17.414062 480.722656 C 20.675781 470.292969 31.617188 435.195312 35.410156 421.617188 C 35.460938 421.4375 35.632812 421.324219 35.816406 421.351562 C 35.996094 421.378906 36.132812 421.535156 36.132812 421.71875 C 35.941406 434.664062 35.484375 467.691406 35.324219 479.097656 L 35.304688 480.328125 C 35.292969 482.050781 36.597656 483.5 38.3125 483.660156 L 48.488281 484.582031 C 48.589844 484.59375 48.691406 484.597656 48.796875 484.597656 Z M 48.796875 484.597656 "/>
<path style=" stroke:none;fill-rule:nonzero;fill:rgb(90.196078%,90.196078%,90.196078%);fill-opacity:1;" d="M 46.71875 259.109375 C 49.871094 260.980469 51.753906 264.425781 52.835938 267.933594 C 54.839844 274.417969 56.042969 281.125 56.425781 287.902344 L 57.570312 308.195312 L 71.71875 361.996094 C 59.453125 372.382812 52.378906 370.019531 35.871094 361.527344 C 19.359375 353.035156 17.472656 364.359375 17.472656 364.359375 L 14.171875 318.582031 L 9.457031 268.558594 C 10.515625 267.28125 11.714844 266.128906 13.03125 265.121094 C 21.863281 258.246094 33.359375 255.808594 44.21875 258.503906 Z M 46.71875 259.109375 "/>
<path style=" stroke:none;fill-rule:nonzero;fill:rgb(62.745098%,38.039216%,41.568627%);fill-opacity:1;" d="M 51.316406 321.9375 C 50.933594 322.078125 50.566406 322.25 50.214844 322.453125 L 17.621094 306.128906 L 17.078125 297.285156 L 3.636719 296.359375 L 2.914062 316.515625 L 46.46875 330.925781 C 47.195312 334.054688 49.78125 336.402344 52.964844 336.828125 C 56.144531 337.253906 59.253906 335.664062 60.777344 332.839844 C 62.300781 330.011719 61.914062 326.539062 59.8125 324.113281 C 57.707031 321.691406 54.324219 320.820312 51.316406 321.933594 Z M 51.316406 321.9375 "/>
<path style=" stroke:none;fill-rule:nonzero;fill:rgb(90.196078%,90.196078%,90.196078%);fill-opacity:1;" d="M 9.691406 268.78125 C 1.671875 271.613281 0.261719 302.292969 0.261719 302.292969 C 9.695312 297.101562 21.015625 305.597656 21.015625 305.597656 C 21.015625 305.597656 23.371094 297.574219 26.203125 287.191406 C 27.941406 281.253906 26.515625 274.84375 22.429688 270.203125 C 22.429688 270.203125 17.710938 265.949219 9.691406 268.78125 Z M 9.691406 268.78125 "/>
<path style=" stroke:none;fill-rule:nonzero;fill:rgb(18.431373%,18.039216%,25.490196%);fill-opacity:1;" d="M 19.082031 238.722656 C 21.332031 236.925781 24.398438 240.195312 24.398438 240.195312 L 26.199219 223.996094 C 26.199219 223.996094 37.441406 225.34375 44.640625 223.546875 C 51.839844 221.746094 52.960938 230.070312 52.960938 230.070312 C 53.332031 226.710938 53.40625 223.320312 53.1875 219.945312 C 52.738281 215.894531 46.890625 211.84375 36.542969 209.144531 C 26.199219 206.445312 20.804688 218.144531 20.804688 218.144531 C 13.601562 221.746094 16.832031 240.523438 19.082031 238.722656 Z M 19.082031 238.722656 "/>
</g>
</svg>
