<svg width="800" height="600" xmlns="http://www.w3.org/2000/svg">
 <defs>
  <linearGradient id="svg_67" x1="0.5" x2="0.5" y1="-0.01064" y2="1.00106">
   <stop offset="0" stop-color="#2100bb" class="stopColor70b svgShape"/>
   <stop offset="1" stop-color="#00298b" class="stopColor00008b svgShape"/>
   <stop offset="1" stop-color="#000000" class="stopColor000000 svgShape"/>
  </linearGradient>
  <linearGradient id="svg_64" x1="0.59434" x2="0.39716" y1="0.03084" y2="1.01137">
   <stop offset="0" stop-color="#4d4d4d" class="stopColor4d4d4d svgShape"/>
   <stop offset="0.293" stop-color="#898989" class="stopColor898989 svgShape"/>
   <stop offset="0.628" stop-color="#c8c8c8" class="stopColorc8c8c8 svgShape"/>
   <stop offset="0.873" stop-color="#f0f0f0" class="stopColorf0f0f0 svgShape"/>
   <stop offset="1" stop-color="#ffffff" class="stopColorfff svgShape"/>
  </linearGradient>
  <linearGradient id="svg_61" x1="0.59434" x2="0.39716" y1="0.03084" y2="1.01137">
   <stop offset="0" stop-color="#da88d9" class="stopColor88cfda svgShape"/>
   <stop offset="0.008" stop-color="#d989d8" class="stopColor89cfd9 svgShape"/>
   <stop offset="0.478" stop-color="#d9bbc5" class="stopColorc8d9bb svgShape"/>
   <stop offset="0.822" stop-color="#f0a7c0" class="stopColorf0dfa7 svgShape"/>
   <stop offset="1" stop-color="#ffa0c1" class="stopColorffe1a0 svgShape"/>
  </linearGradient>
  <linearGradient id="svg_60" x1="-0.10461" x2="1.54993" y1="0.74042" y2="0.00991">
   <stop offset="1" stop-color="#00298b" class="stopColor00008b svgShape"/>
   <stop offset="1" stop-color="#000000" class="stopColor000000 svgShape"/>
  </linearGradient>
  <linearGradient id="svg_59" x1="0.37126" x2="0.81354" y1="0.98369" y2="0.05558">
   <stop offset="0" stop-color="#ff33fc" class="stopColor7633ff svgShape"/>
   <stop offset="0.159" stop-color="#ff37fc" class="stopColor7137ff svgShape"/>
   <stop offset="0.353" stop-color="#6443ff" class="stopColor6243ff svgShape"/>
   <stop offset="0.568" stop-color="#6949ff" class="stopColor4957ff svgShape"/>
   <stop offset="0.794" stop-color="#4c26ff" class="stopColor2672ff svgShape"/>
   <stop offset="1" stop-color="#2c00ff" class="stopColor0090ff svgShape"/>
  </linearGradient>
  <linearGradient id="svg_58" x1="0.47504" x2="0.42868" y1="1.20221" y2="2.30299">
   <stop offset="0.074" stop-color="#ce2861" class="stopColorcec228 svgShape"/>
   <stop offset="0.58" stop-color="#b218b0" class="stopColorb2ae18 svgShape"/>
  </linearGradient>
  <linearGradient id="svg_57" x1="0.26905" x2="0.67868" y1="0.51843" y2="0.48598">
   <stop offset="0" stop-color="#2100bb" class="stopColor70b svgShape"/>
   <stop offset="1" stop-color="#00298b" class="stopColor00008b svgShape"/>
   <stop offset="1" stop-color="#000000" class="stopColor000000 svgShape"/>
  </linearGradient>
  <linearGradient id="svg_56" x1="0.06245" x2="0.93782" y1="0.76769" y2="0.23297">
   <stop offset="0" stop-color="#2100bb" class="stopColor70b svgShape"/>
   <stop offset="1" stop-color="#00298b" class="stopColor00008b svgShape"/>
   <stop offset="1" stop-color="#000000" class="stopColor000000 svgShape"/>
  </linearGradient>
  <linearGradient id="svg_55" x1="0.06865" x2="0.9317" y1="0.72749" y2="0.27306">
   <stop offset="0" stop-color="#2100bb" class="stopColor70b svgShape"/>
   <stop offset="1" stop-color="#00298b" class="stopColor00008b svgShape"/>
   <stop offset="1" stop-color="#000000" class="stopColor000000 svgShape"/>
  </linearGradient>
  <linearGradient id="svg_54" x1="1.10484" x2="-0.54992" y1="0.74022" y2="0.00991">
   <stop offset="1" stop-color="#00298b" class="stopColor00008b svgShape"/>
   <stop offset="1" stop-color="#000000" class="stopColor000000 svgShape"/>
  </linearGradient>
  <linearGradient id="svg_53" x1="0.38921" x2="0.78114" y1="0.99114" y2="0.14991">
   <stop offset="0" stop-color="#021c59" class="stopColor59023f svgShape"/>
   <stop offset="0.119" stop-color="#041d59" class="stopColor590444 svgShape"/>
   <stop offset="0.265" stop-color="#0a225a" class="stopColor5a0a53 svgShape"/>
   <stop offset="0.426" stop-color="#152f6c" class="stopColor5c156c svgShape"/>
   <stop offset="0.597" stop-color="#36238f" class="stopColor5e238f svgShape"/>
   <stop offset="0.776" stop-color="#4c35bc" class="stopColor6135bc svgShape"/>
   <stop offset="0.96" stop-color="#694cf2" class="stopColor644cf2 svgShape"/>
   <stop offset="1" stop-color="#6f51ff" class="stopColor6551ff svgShape"/>
  </linearGradient>
  <linearGradient id="svg_52" x1="0.4912" x2="0.47342" y1="0.71245" y2="1.04836">
   <stop offset="0.074" stop-color="#ce2861" class="stopColorcec228 svgShape"/>
   <stop offset="0.58" stop-color="#b218b0" class="stopColorb2ae18 svgShape"/>
  </linearGradient>
  <linearGradient id="svg_51" x1="0.39371" x2="0.58227" y1="0.55477" y2="0.45825">
   <stop offset="0" stop-color="#2100bb" class="stopColor70b svgShape"/>
   <stop offset="1" stop-color="#00298b" class="stopColor00008b svgShape"/>
   <stop offset="1" stop-color="#000000" class="stopColor000000 svgShape"/>
  </linearGradient>
  <linearGradient id="svg_50" x1="0.14337" x2="0.85688" y1="3.88637" y2="-3.74836">
   <stop offset="0" stop-color="#2100bb" class="stopColor70b svgShape"/>
   <stop offset="1" stop-color="#00298b" class="stopColor00008b svgShape"/>
   <stop offset="1" stop-color="#000000" class="stopColor000000 svgShape"/>
  </linearGradient>
  <linearGradient id="svg_49" x1="0.70798" x2="-0.39248" y1="0.58443" y2="0.07155">
   <stop offset="0" stop-color="#ff33fc" class="stopColor7633ff svgShape"/>
   <stop offset="0.159" stop-color="#ff37fc" class="stopColor7137ff svgShape"/>
   <stop offset="0.353" stop-color="#6443ff" class="stopColor6243ff svgShape"/>
   <stop offset="0.568" stop-color="#6949ff" class="stopColor4957ff svgShape"/>
   <stop offset="0.794" stop-color="#4c26ff" class="stopColor2672ff svgShape"/>
   <stop offset="1" stop-color="#2c00ff" class="stopColor0090ff svgShape"/>
  </linearGradient>
  <linearGradient id="svg_48" x1="0.56545" x2="0.67274" y1="0.53459" y2="0.59395">
   <stop offset="0.074" stop-color="#ce2861" class="stopColorcec228 svgShape"/>
   <stop offset="0.58" stop-color="#b218b0" class="stopColorb2ae18 svgShape"/>
  </linearGradient>
  <linearGradient id="svg_47" x1="0.58086" x2="0.16842" y1="1.0035" y2="0.0566">
   <stop offset="0" stop-color="#021c59" class="stopColor59023f svgShape"/>
   <stop offset="0.119" stop-color="#041d59" class="stopColor590444 svgShape"/>
   <stop offset="0.265" stop-color="#0a225a" class="stopColor5a0a53 svgShape"/>
   <stop offset="0.426" stop-color="#152f6c" class="stopColor5c156c svgShape"/>
   <stop offset="0.597" stop-color="#36238f" class="stopColor5e238f svgShape"/>
   <stop offset="0.776" stop-color="#4c35bc" class="stopColor6135bc svgShape"/>
   <stop offset="0.96" stop-color="#694cf2" class="stopColor644cf2 svgShape"/>
   <stop offset="1" stop-color="#6f51ff" class="stopColor6551ff svgShape"/>
  </linearGradient>
  <linearGradient id="svg_46" x1="0.51342" x2="0.53895" y1="0.82127" y2="1.30933">
   <stop offset="0.074" stop-color="#ce2861" class="stopColorcec228 svgShape"/>
   <stop offset="0.58" stop-color="#b218b0" class="stopColorb2ae18 svgShape"/>
  </linearGradient>
  <linearGradient id="svg_45" x1="0.62698" x2="0.40293" y1="0.54387" y2="0.46681">
   <stop offset="0" stop-color="#2100bb" class="stopColor70b svgShape"/>
   <stop offset="1" stop-color="#00298b" class="stopColor00008b svgShape"/>
   <stop offset="1" stop-color="#000000" class="stopColor000000 svgShape"/>
  </linearGradient>
  <linearGradient id="svg_44" x1="0.87742" x2="0.12297" y1="2.0412" y2="-1.2094">
   <stop offset="0" stop-color="#2100bb" class="stopColor70b svgShape"/>
   <stop offset="1" stop-color="#00298b" class="stopColor00008b svgShape"/>
   <stop offset="1" stop-color="#000000" class="stopColor000000 svgShape"/>
  </linearGradient>
  <linearGradient id="svg_43" x1="1.04337" x2="-0.03657" y1="0.88062" y2="0.10232">
   <stop offset="0" stop-color="#2100bb" class="stopColor70b svgShape"/>
   <stop offset="1" stop-color="#00298b" class="stopColor00008b svgShape"/>
   <stop offset="1" stop-color="#000000" class="stopColor000000 svgShape"/>
  </linearGradient>
  <linearGradient id="svg_42" x1="-0.0805" x2="0.97376" y1="0.27529" y2="0.60503">
   <stop offset="0" stop-color="#ff33fc" class="stopColor7633ff svgShape"/>
   <stop offset="0.159" stop-color="#ff37fc" class="stopColor7137ff svgShape"/>
   <stop offset="0.353" stop-color="#6443ff" class="stopColor6243ff svgShape"/>
   <stop offset="0.568" stop-color="#6949ff" class="stopColor4957ff svgShape"/>
   <stop offset="0.794" stop-color="#4c26ff" class="stopColor2672ff svgShape"/>
   <stop offset="1" stop-color="#2c00ff" class="stopColor0090ff svgShape"/>
  </linearGradient>
  <linearGradient id="svg_41" x1="-0.01624" x2="1.02126" y1="0.27916" y2="0.62048">
   <stop offset="0" stop-color="#ff33fc" class="stopColor7633ff svgShape"/>
   <stop offset="0.159" stop-color="#ff37fc" class="stopColor7137ff svgShape"/>
   <stop offset="0.353" stop-color="#6443ff" class="stopColor6243ff svgShape"/>
   <stop offset="0.568" stop-color="#6949ff" class="stopColor4957ff svgShape"/>
   <stop offset="0.794" stop-color="#4c26ff" class="stopColor2672ff svgShape"/>
   <stop offset="1" stop-color="#2c00ff" class="stopColor0090ff svgShape"/>
  </linearGradient>
  <linearGradient id="svg_40" x1="-0.0248" x2="1.04037" y1="0.26822" y2="0.62854">
   <stop offset="0" stop-color="#ff33fc" class="stopColor7633ff svgShape"/>
   <stop offset="0.159" stop-color="#ff37fc" class="stopColor7137ff svgShape"/>
   <stop offset="0.353" stop-color="#6443ff" class="stopColor6243ff svgShape"/>
   <stop offset="0.568" stop-color="#6949ff" class="stopColor4957ff svgShape"/>
   <stop offset="0.794" stop-color="#4c26ff" class="stopColor2672ff svgShape"/>
   <stop offset="1" stop-color="#2c00ff" class="stopColor0090ff svgShape"/>
  </linearGradient>
  <linearGradient id="svg_39" x1="-0.03222" x2="1.05649" y1="0.28135" y2="0.6561">
   <stop offset="0" stop-color="#ff33fc" class="stopColor7633ff svgShape"/>
   <stop offset="0.159" stop-color="#ff37fc" class="stopColor7137ff svgShape"/>
   <stop offset="0.353" stop-color="#6443ff" class="stopColor6243ff svgShape"/>
   <stop offset="0.568" stop-color="#6949ff" class="stopColor4957ff svgShape"/>
   <stop offset="0.794" stop-color="#4c26ff" class="stopColor2672ff svgShape"/>
   <stop offset="1" stop-color="#2c00ff" class="stopColor0090ff svgShape"/>
  </linearGradient>
  <linearGradient id="svg_38" x1="0.02167" x2="0.98072" y1="0.24734" y2="0.85211">
   <stop offset="0" stop-color="#ff33fc" class="stopColor7633ff svgShape"/>
   <stop offset="0.159" stop-color="#ff37fc" class="stopColor7137ff svgShape"/>
   <stop offset="0.353" stop-color="#6443ff" class="stopColor6243ff svgShape"/>
   <stop offset="0.568" stop-color="#6949ff" class="stopColor4957ff svgShape"/>
   <stop offset="0.794" stop-color="#4c26ff" class="stopColor2672ff svgShape"/>
   <stop offset="1" stop-color="#2c00ff" class="stopColor0090ff svgShape"/>
  </linearGradient>
  <linearGradient id="svg_37" x1="0.02282" x2="1.03225" y1="0.28583" y2="0.74571">
   <stop offset="0" stop-color="#ff33fc" class="stopColor7633ff svgShape"/>
   <stop offset="0.159" stop-color="#ff37fc" class="stopColor7137ff svgShape"/>
   <stop offset="0.353" stop-color="#6443ff" class="stopColor6243ff svgShape"/>
   <stop offset="0.568" stop-color="#6949ff" class="stopColor4957ff svgShape"/>
   <stop offset="0.794" stop-color="#4c26ff" class="stopColor2672ff svgShape"/>
   <stop offset="1" stop-color="#2c00ff" class="stopColor0090ff svgShape"/>
  </linearGradient>
  <linearGradient id="svg_36" x1="1.07676" x2="0.02249" y1="0.27551" y2="0.60526">
   <stop offset="0" stop-color="#ff33fc" class="stopColor7633ff svgShape"/>
   <stop offset="0.159" stop-color="#ff37fc" class="stopColor7137ff svgShape"/>
   <stop offset="0.353" stop-color="#6443ff" class="stopColor6243ff svgShape"/>
   <stop offset="0.568" stop-color="#6949ff" class="stopColor4957ff svgShape"/>
   <stop offset="0.794" stop-color="#4c26ff" class="stopColor2672ff svgShape"/>
   <stop offset="1" stop-color="#2c00ff" class="stopColor0090ff svgShape"/>
  </linearGradient>
  <linearGradient id="svg_35" x1="1.01196" x2="-0.02543" y1="0.27946" y2="0.62074">
   <stop offset="0" stop-color="#ff33fc" class="stopColor7633ff svgShape"/>
   <stop offset="0.159" stop-color="#ff37fc" class="stopColor7137ff svgShape"/>
   <stop offset="0.353" stop-color="#6443ff" class="stopColor6243ff svgShape"/>
   <stop offset="0.568" stop-color="#6949ff" class="stopColor4957ff svgShape"/>
   <stop offset="0.794" stop-color="#4c26ff" class="stopColor2672ff svgShape"/>
   <stop offset="1" stop-color="#2c00ff" class="stopColor0090ff svgShape"/>
  </linearGradient>
  <linearGradient id="svg_34" x1="1.01986" x2="-0.04531" y1="0.26774" y2="0.62847">
   <stop offset="0" stop-color="#ff33fc" class="stopColor7633ff svgShape"/>
   <stop offset="0.159" stop-color="#ff37fc" class="stopColor7137ff svgShape"/>
   <stop offset="0.353" stop-color="#6443ff" class="stopColor6243ff svgShape"/>
   <stop offset="0.568" stop-color="#6949ff" class="stopColor4957ff svgShape"/>
   <stop offset="0.794" stop-color="#4c26ff" class="stopColor2672ff svgShape"/>
   <stop offset="1" stop-color="#2c00ff" class="stopColor0090ff svgShape"/>
  </linearGradient>
  <linearGradient id="svg_33" x1="1.02761" x2="-0.06119" y1="0.2815" y2="0.65629">
   <stop offset="0" stop-color="#ff33fc" class="stopColor7633ff svgShape"/>
   <stop offset="0.159" stop-color="#ff37fc" class="stopColor7137ff svgShape"/>
   <stop offset="0.353" stop-color="#6443ff" class="stopColor6243ff svgShape"/>
   <stop offset="0.568" stop-color="#6949ff" class="stopColor4957ff svgShape"/>
   <stop offset="0.794" stop-color="#4c26ff" class="stopColor2672ff svgShape"/>
   <stop offset="1" stop-color="#2c00ff" class="stopColor0090ff svgShape"/>
  </linearGradient>
  <linearGradient id="svg_32" x1="0.97562" x2="0.01664" y1="0.2476" y2="0.85233">
   <stop offset="0" stop-color="#ff33fc" class="stopColor7633ff svgShape"/>
   <stop offset="0.159" stop-color="#ff37fc" class="stopColor7137ff svgShape"/>
   <stop offset="0.353" stop-color="#6443ff" class="stopColor6243ff svgShape"/>
   <stop offset="0.568" stop-color="#6949ff" class="stopColor4957ff svgShape"/>
   <stop offset="0.794" stop-color="#4c26ff" class="stopColor2672ff svgShape"/>
   <stop offset="1" stop-color="#2c00ff" class="stopColor0090ff svgShape"/>
  </linearGradient>
  <linearGradient id="svg_31" x1="0.97374" x2="-0.03569" y1="0.28595" y2="0.74569">
   <stop offset="0" stop-color="#ff33fc" class="stopColor7633ff svgShape"/>
   <stop offset="0.159" stop-color="#ff37fc" class="stopColor7137ff svgShape"/>
   <stop offset="0.353" stop-color="#6443ff" class="stopColor6243ff svgShape"/>
   <stop offset="0.568" stop-color="#6949ff" class="stopColor4957ff svgShape"/>
   <stop offset="0.794" stop-color="#4c26ff" class="stopColor2672ff svgShape"/>
   <stop offset="1" stop-color="#2c00ff" class="stopColor0090ff svgShape"/>
  </linearGradient>
  <linearGradient id="svg_30" x1="0.49999" x2="0.49999" y1="1.41983" y2="-0.04334">
   <stop offset="0" stop-color="#2100bb" class="stopColor70b svgShape"/>
   <stop offset="0.118" stop-color="#1f00b3" class="stopColor6300b3 svgShape"/>
   <stop offset="0.393" stop-color="#1c00a2" class="stopColor3800a2 svgShape"/>
   <stop offset="0.641" stop-color="#002c95" class="stopColor190095 svgShape"/>
   <stop offset="0.852" stop-color="#002a8e" class="stopColor07008e svgShape"/>
   <stop offset="1" stop-color="#00298b" class="stopColor00008b svgShape"/>
   <stop offset="1" stop-color="#000000" class="stopColor000000 svgShape"/>
  </linearGradient>
  <linearGradient id="svg_29" x1="0.59047" x2="0.26661" y1="0.99008" y2="-0.26081">
   <stop offset="0" stop-color="#ffffff" class="stopColorfff svgShape"/>
   <stop offset="0.122" stop-color="#fffbfc" class="stopColorfbfdff svgShape"/>
   <stop offset="0.248" stop-color="#ffeff5" class="stopColoreff5ff svgShape"/>
   <stop offset="0.374" stop-color="#ffdae7" class="stopColordae9ff svgShape"/>
   <stop offset="0.501" stop-color="#ffbdd4" class="stopColorbdd9ff svgShape"/>
   <stop offset="0.629" stop-color="#ff98bb" class="stopColor98c3ff svgShape"/>
   <stop offset="0.758" stop-color="#ff6bfd" class="stopColor6ba9ff svgShape"/>
   <stop offset="0.885" stop-color="#5a37ff" class="stopColor378aff svgShape"/>
   <stop offset="1" stop-color="#2c00ff" class="stopColor006aff svgShape"/>
  </linearGradient>
  <linearGradient id="svg_28" x1="0.50001" x2="0.50001" y1="1.0998" y2="-0.17815">
   <stop offset="0" stop-color="#ffffff" class="stopColorfff svgShape"/>
   <stop offset="0.122" stop-color="#fffbfc" class="stopColorfbfdff svgShape"/>
   <stop offset="0.248" stop-color="#ffeff5" class="stopColoreff5ff svgShape"/>
   <stop offset="0.374" stop-color="#ffdae7" class="stopColordae9ff svgShape"/>
   <stop offset="0.501" stop-color="#ffbdd4" class="stopColorbdd9ff svgShape"/>
   <stop offset="0.629" stop-color="#ff98bb" class="stopColor98c3ff svgShape"/>
   <stop offset="0.758" stop-color="#ff6bfd" class="stopColor6ba9ff svgShape"/>
   <stop offset="0.885" stop-color="#5a37ff" class="stopColor378aff svgShape"/>
   <stop offset="1" stop-color="#2c00ff" class="stopColor006aff svgShape"/>
  </linearGradient>
  <linearGradient id="svg_27" x1="0.61698" x2="0.39895" y1="0.06047" y2="0.8069">
   <stop offset="0" stop-color="#ffffff" class="stopColorfff svgShape"/>
   <stop offset="0.122" stop-color="#fffbfc" class="stopColorfbfdff svgShape"/>
   <stop offset="0.248" stop-color="#ffeff5" class="stopColoreff5ff svgShape"/>
   <stop offset="0.374" stop-color="#ffdae7" class="stopColordae9ff svgShape"/>
   <stop offset="0.501" stop-color="#ffbdd4" class="stopColorbdd9ff svgShape"/>
   <stop offset="0.629" stop-color="#ff98bb" class="stopColor98c3ff svgShape"/>
   <stop offset="0.758" stop-color="#ff6bfd" class="stopColor6ba9ff svgShape"/>
   <stop offset="0.885" stop-color="#5a37ff" class="stopColor378aff svgShape"/>
   <stop offset="1" stop-color="#2c00ff" class="stopColor006aff svgShape"/>
  </linearGradient>
  <linearGradient id="svg_26" x1="-0.09428" x2="0.59614" y1="0.09904" y2="0.78167">
   <stop offset="0" stop-color="#ffffff" class="stopColorfff svgShape"/>
   <stop offset="0.122" stop-color="#fffbfc" class="stopColorfbfdff svgShape"/>
   <stop offset="0.248" stop-color="#ffeff5" class="stopColoreff5ff svgShape"/>
   <stop offset="0.374" stop-color="#ffdae7" class="stopColordae9ff svgShape"/>
   <stop offset="0.501" stop-color="#ffbdd4" class="stopColorbdd9ff svgShape"/>
   <stop offset="0.629" stop-color="#ff98bb" class="stopColor98c3ff svgShape"/>
   <stop offset="0.758" stop-color="#ff6bfd" class="stopColor6ba9ff svgShape"/>
   <stop offset="0.885" stop-color="#5a37ff" class="stopColor378aff svgShape"/>
   <stop offset="1" stop-color="#2c00ff" class="stopColor006aff svgShape"/>
  </linearGradient>
  <linearGradient id="svg_25" x1="0.50003" x2="0.50003" y1="0.13072" y2="0.82614">
   <stop offset="0" stop-color="#441dff" class="stopColor1dacff svgShape"/>
   <stop offset="0.114" stop-color="#401bef" class="stopColor1b9fef svgShape"/>
   <stop offset="0.337" stop-color="#3415c6" class="stopColor157dc6 svgShape"/>
   <stop offset="0.647" stop-color="#0c2f82" class="stopColor0c4682 svgShape"/>
   <stop offset="1" stop-color="#000e2e" class="stopColor00002e svgShape"/>
  </linearGradient>
  <linearGradient id="svg_24" x1="0.49996" x2="0.49996" y1="1.01924" y2="-0.19358">
   <stop offset="0" stop-color="#000000" class="stopColor000000 svgShape"/>
   <stop offset="0.101" stop-color="#020305" class="stopColor020305 svgShape"/>
   <stop offset="0.224" stop-color="#0a0d14" class="stopColor0a0b14 svgShape"/>
   <stop offset="0.36" stop-color="#151c2d" class="stopColor151a2d svgShape"/>
   <stop offset="0.505" stop-color="#303a52" class="stopColor252d50 svgShape"/>
   <stop offset="0.657" stop-color="#574b90" class="stopColor3a477d svgShape"/>
   <stop offset="0.814" stop-color="#6554b4" class="stopColor5466b4 svgShape"/>
   <stop offset="0.974" stop-color="#f472f2" class="stopColor728af4 svgShape"/>
   <stop offset="1" stop-color="#ff77fd" class="stopColor7790ff svgShape"/>
  </linearGradient>
  <linearGradient id="svg_23" x1="-0.00001" x2="1" y1="0.50001" y2="0.50001">
   <stop offset="0" stop-color="#182442" class="stopColor311842 svgShape"/>
   <stop offset="0.461" stop-color="#0c1f4b" class="stopColor190c4b svgShape"/>
   <stop offset="1" stop-color="#001954" class="stopColor000054 svgShape"/>
  </linearGradient>
  <linearGradient id="svg_22" x1="-0.00002" x2="0.99993" y1="0.50014" y2="0.50014">
   <stop offset="0" stop-color="#ffffff" class="stopColorfff svgShape"/>
   <stop offset="0.122" stop-color="#fffbfc" class="stopColorfbfdff svgShape"/>
   <stop offset="0.248" stop-color="#ffeff5" class="stopColoreff5ff svgShape"/>
   <stop offset="0.374" stop-color="#ffdae7" class="stopColordae9ff svgShape"/>
   <stop offset="0.501" stop-color="#ffbdd4" class="stopColorbdd9ff svgShape"/>
   <stop offset="0.629" stop-color="#ff98bb" class="stopColor98c3ff svgShape"/>
   <stop offset="0.758" stop-color="#ff6bfd" class="stopColor6ba9ff svgShape"/>
   <stop offset="0.885" stop-color="#5a37ff" class="stopColor378aff svgShape"/>
   <stop offset="1" stop-color="#2c00ff" class="stopColor006aff svgShape"/>
  </linearGradient>
  <linearGradient id="svg_21" x1="-0.00003" x2="0.99998" y1="0.49999" y2="0.49999">
   <stop offset="0" stop-color="#182442" class="stopColor311842 svgShape"/>
   <stop offset="0.461" stop-color="#0c1f4b" class="stopColor190c4b svgShape"/>
   <stop offset="1" stop-color="#001954" class="stopColor000054 svgShape"/>
  </linearGradient>
  <linearGradient id="svg_20" x1="0.98003" x2="-0.19351" y1="0.0592" y2="1.32047">
   <stop offset="0" stop-color="#ffffff" class="stopColorfff svgShape"/>
   <stop offset="0.122" stop-color="#fffbfc" class="stopColorfbfdff svgShape"/>
   <stop offset="0.248" stop-color="#ffeff5" class="stopColoreff5ff svgShape"/>
   <stop offset="0.374" stop-color="#ffdae7" class="stopColordae9ff svgShape"/>
   <stop offset="0.501" stop-color="#ffbdd4" class="stopColorbdd9ff svgShape"/>
   <stop offset="0.629" stop-color="#ff98bb" class="stopColor98c3ff svgShape"/>
   <stop offset="0.758" stop-color="#ff6bfd" class="stopColor6ba9ff svgShape"/>
   <stop offset="0.885" stop-color="#5a37ff" class="stopColor378aff svgShape"/>
   <stop offset="1" stop-color="#2c00ff" class="stopColor006aff svgShape"/>
  </linearGradient>
  <linearGradient id="svg_19" x1="0.00151" x2="2.56498" y1="0.05873" y2="2.38744">
   <stop offset="0" stop-color="#ff0058" class="stopColorff5e00 svgShape"/>
   <stop offset="0.067" stop-color="#de28db" class="stopColorde5f28 svgShape"/>
   <stop offset="0.162" stop-color="#b55ab4" class="stopColorb5615a svgShape"/>
   <stop offset="0.262" stop-color="#9e579d" class="stopColor906286 svgShape"/>
   <stop offset="0.365" stop-color="#7063ab" class="stopColor7163ab svgShape"/>
   <stop offset="0.472" stop-color="#6c58ca" class="stopColor5864ca svgShape"/>
   <stop offset="0.584" stop-color="#6045e1" class="stopColor4565e1 svgShape"/>
   <stop offset="0.703" stop-color="#5837f2" class="stopColor3766f2 svgShape"/>
   <stop offset="0.834" stop-color="#532ffc" class="stopColor2f66fc svgShape"/>
   <stop offset="1" stop-color="#512cff" class="stopColor2c66ff svgShape"/>
  </linearGradient>
  <linearGradient id="svg_18" x1="0.51797" x2="0.37957" y1="0.08952" y2="0.90516">
   <stop offset="0" stop-color="#334672" class="stopColor403372 svgShape"/>
   <stop offset="0.143" stop-color="#364977" class="stopColor3e3677 svgShape"/>
   <stop offset="0.318" stop-color="#453786" class="stopColor374086 svgShape"/>
   <stop offset="0.511" stop-color="#3f2b9f" class="stopColor2b519f svgShape"/>
   <stop offset="0.716" stop-color="#391cc2" class="stopColor1c68c2 svgShape"/>
   <stop offset="0.929" stop-color="#6666ff" class="stopColor0885ee svgShape"/>
   <stop offset="1" stop-color="#2c00ff" class="stopColor0090ff svgShape"/>
  </linearGradient>
  <linearGradient id="svg_17" x1="-0.78317" x2="1.12884" y1="-0.62268" y2="1.1358">
   <stop offset="0" stop-color="#ff0058" class="stopColorff5e00 svgShape"/>
   <stop offset="0.151" stop-color="#fc0359" class="stopColorfc5e03 svgShape"/>
   <stop offset="0.28" stop-color="#f40e5d" class="stopColorf45e0e svgShape"/>
   <stop offset="0.401" stop-color="#e520e2" class="stopColore55f20 svgShape"/>
   <stop offset="0.517" stop-color="#d038ce" class="stopColord06038 svgShape"/>
   <stop offset="0.63" stop-color="#b659b5" class="stopColorb66159 svgShape"/>
   <stop offset="0.74" stop-color="#956294" class="stopColor956280 svgShape"/>
   <stop offset="0.847" stop-color="#7063af" class="stopColor6f63af svgShape"/>
   <stop offset="0.951" stop-color="#5f43e3" class="stopColor4365e3 svgShape"/>
   <stop offset="1" stop-color="#512cff" class="stopColor2c66ff svgShape"/>
  </linearGradient>
  <linearGradient id="svg_16" x1="-0.00006" x2="0.99994" y1="0.49997" y2="0.49997">
   <stop offset="0" stop-color="#da88d9" class="stopColor88cfda svgShape"/>
   <stop offset="0.008" stop-color="#d989d8" class="stopColor89cfd9 svgShape"/>
   <stop offset="0.478" stop-color="#d9bbc5" class="stopColorc8d9bb svgShape"/>
   <stop offset="0.822" stop-color="#f0a7c0" class="stopColorf0dfa7 svgShape"/>
   <stop offset="1" stop-color="#ffa0c1" class="stopColorffe1a0 svgShape"/>
  </linearGradient>
  <linearGradient id="svg_15" x1="0.17575" x2="1.26502" y1="1.00101" y2="-0.09278">
   <stop offset="0" stop-color="#ff0058" class="stopColorff5e00 svgShape"/>
   <stop offset="0.118" stop-color="#fb0459" class="stopColorfb5e04 svgShape"/>
   <stop offset="0.242" stop-color="#f1115e" class="stopColorf15f11 svgShape"/>
   <stop offset="0.37" stop-color="#df26dc" class="stopColordf5f26 svgShape"/>
   <stop offset="0.5" stop-color="#c744c5" class="stopColorc76044 svgShape"/>
   <stop offset="0.632" stop-color="#a761a6" class="stopColora7616a svgShape"/>
   <stop offset="0.765" stop-color="#996398" class="stopColor806399 svgShape"/>
   <stop offset="0.897" stop-color="#6954cf" class="stopColor5464cf svgShape"/>
   <stop offset="1" stop-color="#512cff" class="stopColor2c66ff svgShape"/>
  </linearGradient>
  <linearGradient id="svg_14" x1="0.00074" x2="1.00107" y1="0.50003" y2="0.50003">
   <stop offset="0.041" stop-color="#001c60" class="stopColor100060 svgShape"/>
   <stop offset="1" stop-color="#093296" class="stopColor090e96 svgShape"/>
  </linearGradient>
  <linearGradient id="svg_13" x1="0.25403" x2="0.83847" y1="0.95666" y2="-0.1287">
   <stop offset="0" stop-color="#da88d9" class="stopColor88cfda svgShape"/>
   <stop offset="0.008" stop-color="#d989d8" class="stopColor89cfd9 svgShape"/>
   <stop offset="0.478" stop-color="#d9bbc5" class="stopColorc8d9bb svgShape"/>
   <stop offset="0.822" stop-color="#f0a7c0" class="stopColorf0dfa7 svgShape"/>
   <stop offset="1" stop-color="#ffa0c1" class="stopColorffe1a0 svgShape"/>
  </linearGradient>
  <linearGradient id="svg_12" x1="0.34372" x2="0.56525" y1="1.21054" y2="0.1751">
   <stop offset="0.041" stop-color="#eb00e8" class="stopColoreb3300 svgShape"/>
   <stop offset="1" stop-color="#ff0058" class="stopColorf80 svgShape"/>
  </linearGradient>
  <linearGradient id="svg_11" x1="0.3093" x2="0.95433" y1="0.70115" y2="-0.47954">
   <stop offset="0.193" stop-color="#09142f" class="stopColor2f1109 svgShape"/>
   <stop offset="0.681" stop-color="#253e7a" class="stopColor7a3e25 svgShape"/>
  </linearGradient>
  <linearGradient id="svg_10" x1="0.9422" x2="0.11494" y1="0.91859" y2="0.13564">
   <stop offset="0" stop-color="#da88d9" class="stopColor88cfda svgShape"/>
   <stop offset="0.008" stop-color="#d989d8" class="stopColor89cfd9 svgShape"/>
   <stop offset="0.478" stop-color="#d9bbc5" class="stopColorc8d9bb svgShape"/>
   <stop offset="0.822" stop-color="#f0a7c0" class="stopColorf0dfa7 svgShape"/>
   <stop offset="1" stop-color="#ffa0c1" class="stopColorffe1a0 svgShape"/>
  </linearGradient>
  <linearGradient id="svg_9" x1="0.3846" x2="0.66428" y1="1.09841" y2="0.00491">
   <stop offset="0" stop-color="#ff33fc" class="stopColor7633ff svgShape"/>
   <stop offset="0.159" stop-color="#ff37fc" class="stopColor7137ff svgShape"/>
   <stop offset="0.353" stop-color="#6443ff" class="stopColor6243ff svgShape"/>
   <stop offset="0.568" stop-color="#6949ff" class="stopColor4957ff svgShape"/>
   <stop offset="0.794" stop-color="#4c26ff" class="stopColor2672ff svgShape"/>
   <stop offset="1" stop-color="#2c00ff" class="stopColor0090ff svgShape"/>
  </linearGradient>
  <linearGradient id="svg_8" x1="0.42493" x2="0.54034" y1="-0.08118" y2="1.21161">
   <stop offset="0" stop-color="#ff33fc" class="stopColor7633ff svgShape"/>
   <stop offset="0.159" stop-color="#ff37fc" class="stopColor7137ff svgShape"/>
   <stop offset="0.353" stop-color="#6443ff" class="stopColor6243ff svgShape"/>
   <stop offset="0.568" stop-color="#6949ff" class="stopColor4957ff svgShape"/>
   <stop offset="0.794" stop-color="#4c26ff" class="stopColor2672ff svgShape"/>
   <stop offset="1" stop-color="#2c00ff" class="stopColor0090ff svgShape"/>
  </linearGradient>
  <linearGradient id="svg_7" x1="0.0669" x2="0.86702" y1="0.96707" y2="0.10423">
   <stop offset="0" stop-color="#da88d9" class="stopColor88cfda svgShape"/>
   <stop offset="0.008" stop-color="#d989d8" class="stopColor89cfd9 svgShape"/>
   <stop offset="0.478" stop-color="#d9bbc5" class="stopColorc8d9bb svgShape"/>
   <stop offset="0.822" stop-color="#f0a7c0" class="stopColorf0dfa7 svgShape"/>
   <stop offset="1" stop-color="#ffa0c1" class="stopColorffe1a0 svgShape"/>
  </linearGradient>
  <linearGradient id="svg_6" x1="1.00007" x2="-0.00009" y1="0.50008" y2="0.50008">
   <stop offset="0" stop-color="#132141" class="stopColor311341 svgShape"/>
   <stop offset="0.23" stop-color="#3113c2" class="stopColor3113c2 svgShape"/>
   <stop offset="0.348" stop-color="#3618c5" class="stopColor2f18c5 svgShape"/>
   <stop offset="0.493" stop-color="#4427cc" class="stopColor2927cc svgShape"/>
   <stop offset="0.652" stop-color="#3f1fd8" class="stopColor1f40d8 svgShape"/>
   <stop offset="0.822" stop-color="#3712e9" class="stopColor1263e9 svgShape"/>
   <stop offset="0.998" stop-color="#2c00ff" class="stopColor008fff svgShape"/>
   <stop offset="1" stop-color="#2c00ff" class="stopColor0090ff svgShape"/>
  </linearGradient>
  <linearGradient id="svg_5" x1="0.20024" x2="0.59511" y1="-0.11276" y2="0.67195">
   <stop offset="0" stop-color="#ff33fc" class="stopColor7633ff svgShape"/>
   <stop offset="0.159" stop-color="#ff37fc" class="stopColor7137ff svgShape"/>
   <stop offset="0.353" stop-color="#6443ff" class="stopColor6243ff svgShape"/>
   <stop offset="0.568" stop-color="#6949ff" class="stopColor4957ff svgShape"/>
   <stop offset="0.794" stop-color="#4c26ff" class="stopColor2672ff svgShape"/>
   <stop offset="1" stop-color="#2c00ff" class="stopColor0090ff svgShape"/>
  </linearGradient>
  <linearGradient id="svg_4" x1="0.61674" x2="0.33687" y1="1.09863" y2="0.00485">
   <stop offset="0.041" stop-color="#eb00e8" class="stopColoreb3300 svgShape"/>
   <stop offset="1" stop-color="#ff0058" class="stopColorf80 svgShape"/>
  </linearGradient>
  <linearGradient id="svg_3" x1="0.57514" x2="0.45982" y1="-0.08018" y2="1.21177">
   <stop offset="0" stop-color="#ff0058" class="stopColorff5e00 svgShape"/>
   <stop offset="0.151" stop-color="#fc0359" class="stopColorfc5e03 svgShape"/>
   <stop offset="0.28" stop-color="#f40e5d" class="stopColorf45e0e svgShape"/>
   <stop offset="0.401" stop-color="#e520e2" class="stopColore55f20 svgShape"/>
   <stop offset="0.517" stop-color="#d038ce" class="stopColord06038 svgShape"/>
   <stop offset="0.63" stop-color="#b659b5" class="stopColorb66159 svgShape"/>
   <stop offset="0.74" stop-color="#956294" class="stopColor956280 svgShape"/>
   <stop offset="0.847" stop-color="#7063af" class="stopColor6f63af svgShape"/>
   <stop offset="0.951" stop-color="#5f43e3" class="stopColor4365e3 svgShape"/>
   <stop offset="1" stop-color="#512cff" class="stopColor2c66ff svgShape"/>
  </linearGradient>
 </defs>
 <g>
  <title>Layer 1</title>
  <g stroke="null" id="svg_63">
   <g stroke="null" transform="matrix(2.13993 0 0 1.42097 -704.688 -197.108)" id="svg_2">
    <svg stroke="null" y="90.31682" x="331.95075" id="svg_65" enable-background="new 0 0 800 600" viewBox="0 0 800 600" width="360" height="360" xmlns="http://www.w3.org/2000/svg">
     <path stroke="null" id="svg_66" fill="#1c009f" d="m111.86,449.42c0,0 -22.1,-11.63 -29.76,-28.56c-7.66,-16.93 -0.18,-40.65 -2.48,-48.61c14.14,14.95 22.83,19.29 29.01,36.54c6.18,17.24 4.39,35.78 3.23,40.63zm23.29,28.22c0,0 -22.75,18.03 -46.69,0.62c-16.74,-14.1 -27.88,-33.34 -27.88,-33.34s26.91,3.63 40.37,6.8c13.46,3.18 29.37,18.75 34.2,25.92zm568.92,-28.22c0,0 22.1,-11.63 29.76,-28.56c7.66,-16.93 0.18,-40.65 2.48,-48.61c-14.14,14.95 -22.83,19.29 -29.01,36.54c-6.18,17.24 -4.38,35.78 -3.23,40.63zm-23.29,28.22c0,0 22.75,18.03 46.69,0.62c16.74,-14.1 27.88,-33.34 27.88,-33.34s-26.91,3.63 -40.37,6.8c-13.46,3.18 -29.37,18.75 -34.2,25.92z" class="color00759f svgShape"/>
     <path stroke="null" id="svg_68" fill="#1c009f" d="m220.07,544.46c0,0 -22.47,19.4 -80.47,4.76c-42.27,-10.67 -77.1,-52.41 -77.1,-52.41s82.98,-31.42 157.57,47.65z" class="color00759f svgShape"/>
     <path stroke="null" id="svg_69" fill="#331aac" d="m218.19,547.07c0,0 -44.68,-5.2 -87.78,-84.93c-31.42,-58.11 -20.53,-139.76 -20.53,-139.76s120.11,60.41 108.31,224.69z" class="color741aac svgShape"/>
     <path stroke="null" id="svg_70" fill="#331aac" d="m216.48,545.43c0,0 -35.54,-27.58 -31.16,-118.1c3.19,-65.98 54.77,-130.21 54.77,-130.21s71.51,113.85 -23.61,248.31z" class="color741aac svgShape"/>
     <path stroke="null" id="svg_71" fill="#1c009f" d="m592.61,541.09c0,0 22.19,19.16 79.47,4.7c41.75,-10.54 76.14,-51.75 76.14,-51.75s-81.94,-31.04 -155.61,47.05z" class="color00759f svgShape"/>
     <path stroke="null" id="svg_74" fill="#331aac" d="m595.87,547.07c0,0 44.68,-5.2 87.78,-84.93c31.42,-58.11 20.53,-139.76 20.53,-139.76s-120.11,60.41 -108.31,224.69z" class="color741aac svgShape"/>
     <path stroke="null" id="svg_75" fill="#331aac" d="m597.58,545.43c0,0 35.54,-27.58 31.16,-118.1c-3.2,-65.98 -54.77,-130.21 -54.77,-130.21s-71.51,113.85 23.61,248.31z" class="color741aac svgShape"/>
     <path stroke="null" id="svg_79" fill="url(#svg_67)" d="m711.33,311.78c0,-166.45 -134.93,-301.38 -301.38,-301.38c-166.45,0 -301.38,134.93 -301.38,301.38c0,94.95 43.92,179.62 112.54,234.86l377.69,0c68.6,-55.24 112.53,-139.91 112.53,-234.86z"/>
     <path stroke="null" id="svg_80" fill="#ffffff" d="m375.43,103.15c0,0.66 -0.53,1.19 -1.19,1.19c-0.66,0 -1.19,-0.53 -1.19,-1.19s0.53,-1.19 1.19,-1.19c0.66,0 1.19,0.54 1.19,1.19zm85,73.46c0,0.66 -0.53,1.19 -1.19,1.19c-0.66,0 -1.19,-0.53 -1.19,-1.19c0,-0.66 0.53,-1.19 1.19,-1.19c0.66,0 1.19,0.53 1.19,1.19zm-141.57,18.28c0,0.66 -0.53,1.19 -1.19,1.19c-0.66,0 -1.19,-0.53 -1.19,-1.19c0,-0.66 0.53,-1.19 1.19,-1.19c0.66,0 1.19,0.53 1.19,1.19zm-89.97,-14.37c0,0.66 -0.53,1.19 -1.19,1.19c-0.66,0 -1.19,-0.53 -1.19,-1.19c0,-0.66 0.53,-1.19 1.19,-1.19c0.65,0 1.19,0.53 1.19,1.19zm348.59,72.37c0,0.66 -0.53,1.19 -1.19,1.19c-0.66,0 -1.19,-0.53 -1.19,-1.19s0.53,-1.19 1.19,-1.19c0.66,0 1.19,0.53 1.19,1.19z" class="colorfff svgShape"/>
     <polygon stroke="null" id="svg_81" fill="#ff61fd" points="581.38 173.68 582.64 176.24 585.47 176.65 583.42 178.65 583.91 181.47 581.38 180.14 578.84 181.47 579.33 178.65 577.28 176.65 580.11 176.24" class="color619fff svgShape"/>
     <polygon stroke="null" id="svg_82" fill="#ff90fd" points="288.15 69.53 289.73 72.74 293.27 73.25 290.71 75.75 291.31 79.27 288.15 77.61 284.98 79.27 285.59 75.75 283.03 73.25 286.57 72.74" class="color90c9ff svgShape"/>
     <polygon stroke="null" id="svg_83" fill="#ff90fd" points="642.65 226.45 644.23 229.65 647.77 230.17 645.21 232.66 645.82 236.19 642.65 234.52 639.49 236.19 640.09 232.66 637.53 230.17 641.07 229.65" class="color90c9ff svgShape"/>
     <circle stroke="null" id="svg_84" cx="175.85" cy="216.92" r="4.19" fill="#ff90fd" class="color90c9ff svgShape"/>
     <defs stroke="null">
      <filter stroke="null" id="svg_62" width="83.38" height="83.37" x="481.78" y="56.83" filterUnits="userSpaceOnUse"/>
     </defs>
     <mask stroke="null" id="svg_1" width="83.38" height="83.37" x="481.78" y="56.83" maskUnits="userSpaceOnUse">
      <g stroke="null" id="svg_85" filter="url(#svg_62)" fill="#000000" class="color000 svgShape">
       <path stroke="null" id="svg_86" fill="url(#svg_64)" d="m493.91,127.92c16.24,16.32 42.64,16.39 58.96,0.15c16.32,-16.24 16.39,-42.63 0.15,-58.95c-16.24,-16.32 -42.63,-16.39 -58.96,-0.15c-16.31,16.23 -16.38,42.62 -0.15,58.95z" mask="url(#svg_1)"/>
      </g>
     </mask>
     <path stroke="null" id="svg_87" fill="url(#svg_61)" d="m493.91,127.92c16.24,16.32 42.64,16.39 58.96,0.15c16.32,-16.24 16.39,-42.63 0.15,-58.95c-16.24,-16.32 -42.63,-16.39 -58.96,-0.15c-16.31,16.23 -16.38,42.62 -0.15,58.95z"/>
     <path stroke="null" id="svg_88" fill="url(#svg_60)" d="m573.16,415.18c-0.29,-2.47 13.87,-51.72 29.62,-73.63c15.75,-21.91 33.46,-62.4 33.46,-62.4s5.96,36.01 -10.42,59.66c-16.38,23.65 -23.33,35.33 -23.33,35.33s11.44,-23.06 38.79,-24.65c27.35,-1.59 20.32,23.45 20.32,23.45s-30.18,-43.14 -92.82,54.45"/>
     <g stroke="null" id="svg_89" fill="#000000" class="color000 svgShape">
      <path stroke="null" id="svg_90" fill="url(#svg_59)" d="m535.73,462.95c0,0 -43,10.01 -72.12,-7.82c-29.11,-17.82 -48.2,-43.11 -48.2,-43.11s32.53,-10.95 53.5,-6.61c20.97,4.33 39.32,28.06 39.37,26.15c0.05,-1.92 -22.37,-32.26 -24.19,-52.22c-1.82,-19.97 7.66,-57.36 7.66,-57.36s27.61,21.27 34.49,37.91c6.88,16.64 12.23,52.55 12.23,52.55s-3.66,-31.41 9.07,-57.47c12.73,-26.06 45.08,-47.13 45.08,-47.13s12.03,32.52 2.15,64.24c-9.88,31.72 -32.76,52.58 -32.76,52.58s31.66,-22.85 51.2,-25.98c19.54,-3.13 46.64,13.84 46.64,13.84s-27.71,30.83 -49.15,36.37c-21.43,5.54 -42.98,2.7 -42.98,2.7s29.73,0.51 47.22,12.35c17.49,11.83 32.39,36.25 32.39,36.25s-41.42,4.91 -67.54,-8.36c-26.12,-13.28 -44.06,-28.88 -44.06,-28.88z"/>
      <path stroke="null" id="svg_91" fill="url(#svg_58)" d="m576.67,452.23c-5.36,-0.57 -8.95,-0.64 -8.95,-0.64s3.46,0.44 8.95,0.64z"/>
      <path stroke="null" id="svg_92" fill="url(#svg_57)" d="m498.02,344.96c0,0 5.27,69.65 38.05,106.95c-4.58,-10.43 -16.87,-28.32 -23.69,-53.08c-6.82,-24.76 -14.36,-53.87 -14.36,-53.87z"/>
      <path stroke="null" id="svg_93" fill="url(#svg_56)" d="m535.18,454.83c0,0 -61.64,-17.86 -85.46,-28.95c-17.69,-7.72 -25.93,-11.65 -25.93,-11.65s13.36,10.89 51.51,25.6c38.16,14.72 59.88,15 59.88,15z"/>
      <path stroke="null" id="svg_94" fill="url(#svg_55)" d="m542.9,456.17c0,0 37.8,10.04 69.6,26.33c15.04,7.83 24.5,13.46 24.5,13.46s-25.8,-11.56 -43.57,-18.61c-17.76,-7.06 -50.53,-21.18 -50.53,-21.18z"/>
     </g>
     <path stroke="null" id="svg_95" fill="url(#svg_54)" d="m250.14,395.06c0.29,-2.47 -13.87,-51.72 -29.62,-73.63c-15.75,-21.91 -33.46,-62.4 -33.46,-62.4s-5.96,36.01 10.42,59.66c16.38,23.65 23.33,35.33 23.33,35.33s-11.44,-23.06 -38.79,-24.65c-27.35,-1.59 -20.32,23.45 -20.32,23.45s30.18,-43.14 92.82,54.45"/>
     <g stroke="null" id="svg_96" fill="#000000" class="color000 svgShape">
      <path stroke="#000000" id="svg_97" fill="none" stroke-miterlimit="10" stroke-width="2.31" d="m550.67,288.47c0,0 -17.7,26.51 -28.78,65.04c-11.08,38.53 -6.68,81.77 -6.68,81.77" class="colorStroke000 svgStroke"/>
      <path stroke="#000000" id="svg_98" fill="none" stroke-miterlimit="10" stroke-width="2.31" d="m544.29,332.66c0,0 -14.22,4.53 -19.34,10.98c0.16,-7.09 2.32,-32.77 2.32,-32.77m8.01,62.92c0,0 -13.68,2.31 -18.95,7.42c-3.29,-7.67 -6.35,-27.66 -6.35,-27.66m12.82,55.33c0,0 -5.94,3.52 -8.46,6.83c-4.45,-6.69 -16.25,-19.18 -16.25,-19.18" class="colorStroke000 svgStroke"/>
      <path stroke="null" id="svg_99" fill="#1c009f" d="m548.51,290.94c0,0 17.41,-0.52 25,-12.54c7.59,-12.02 9.11,-22.49 9.11,-22.49s-16.1,2.44 -25.58,10.89c-9.48,8.45 -8.53,24.14 -8.53,24.14zm-4.22,41.72c0,0 9.51,-14.76 22.41,-20.85c11.41,-4.6 27.05,3.94 27.05,3.94s-1.89,11.64 -19.35,18.22c-11.63,4.38 -23.45,1.47 -30.11,-1.31zm-33.42,24.39c0,0 6.09,-24.76 -5.32,-34.52c-11.4,-9.76 -15.85,-12.06 -15.85,-12.06s-4.53,19.15 0.47,29.5c5,10.33 20.7,17.08 20.7,17.08zm20.98,17.32c0,0 15.07,-14.46 26.34,-14.47c11.28,-0.02 22.96,5.03 22.96,5.03s-7.07,14.43 -24.56,14.86c-17.5,0.42 -24.74,-5.42 -24.74,-5.42zm-31.73,24.25c0,0 -3.07,-19.17 -17.43,-22.97c-12.22,-3.01 -17.46,-0.19 -17.46,-0.19s0.59,9.38 7.78,17.23c7.2,7.84 27.11,5.93 27.11,5.93zm20.92,11.3c0,0 2.99,-11.13 12.43,-14.01c9.76,-2.82 18.13,2.21 18.13,2.21s-1.22,11.62 -12.16,14.29c-10.94,2.67 -18.4,-2.49 -18.4,-2.49zm6.79,-97.11c0,0 6.41,-18.2 2.39,-27c-4.02,-8.81 -12.84,-12.72 -12.84,-12.72s-6.85,10.17 -4.37,19.96c2.47,9.79 14.82,19.76 14.82,19.76z" class="color00759f svgShape"/>
     </g>
     <g stroke="null" id="svg_100" fill="#000000" class="color000 svgShape">
      <path stroke="#000000" id="svg_101" fill="none" stroke-miterlimit="10" stroke-width="2.31" d="m247.95,292.46c0,0 24.85,19.96 47,53.38c22.15,33.42 30.96,75.98 30.96,75.98" class="colorStroke000 svgStroke"/>
      <path stroke="#000000" id="svg_102" fill="none" stroke-miterlimit="10" stroke-width="2.31" d="m267.31,332.68c0,0 14.93,0.04 21.75,4.66c-2.28,-6.72 -12.06,-30.56 -12.06,-30.56m11.27,62.42c0,0 13.75,-1.91 20.3,1.38c0.83,-8.3 -2.26,-28.29 -2.26,-28.29m4.41,56.62c0,0 6.72,1.57 10.12,3.97c2.24,-7.72 9.73,-23.18 9.73,-23.18" class="colorStroke000 svgStroke"/>
      <path stroke="null" id="svg_103" fill="#1c009f" d="m250.75,294.16c0,0 -16.77,4.74 -27.61,-4.45c-10.85,-9.19 -15.45,-18.71 -15.45,-18.71s16.09,-2.52 27.67,2.7c11.58,5.21 15.39,20.46 15.39,20.46zm16.56,38.52c0,0 -13.51,-11.22 -27.64,-13.15c-12.27,-0.96 -24.61,11.89 -24.61,11.89s5.3,10.53 23.93,11.56c12.41,0.68 22.81,-5.65 28.32,-10.3zm39.21,13.21c0,0 -13.25,-21.78 -5.31,-34.53c7.94,-12.74 11.5,-16.27 11.5,-16.27s10.08,16.91 8.42,28.28c-1.67,11.37 -14.61,22.52 -14.61,22.52zm-14.8,22.83c0,0 -18.72,-9.26 -29.48,-5.88c-10.76,3.38 -20.39,11.7 -20.39,11.7s11.08,11.64 27.9,6.79c16.82,-4.85 21.97,-12.61 21.97,-12.61zm37.56,13.59c0,0 -2.84,-19.21 9.71,-27.15c10.75,-6.55 16.6,-5.43 16.6,-5.43s2.26,9.12 -2.24,18.77c-4.51,9.65 -24.07,13.81 -24.07,13.81zm-16.57,17.07c0,0 -6.2,-9.72 -16.06,-9.63c-10.15,0.25 -16.62,7.55 -16.62,7.55s4.66,10.72 15.89,9.98c11.23,-0.74 16.79,-7.9 16.79,-7.9zm-35.66,-90.57c0,0 -11.58,-15.43 -10.4,-25.04c1.18,-9.61 8.43,-15.99 8.43,-15.99s9.59,7.64 10.17,17.72c0.58,10.08 -8.2,23.31 -8.2,23.31z" class="color00759f svgShape"/>
     </g>
     <g stroke="null" id="svg_104" fill="#000000" class="color000 svgShape">
      <path stroke="null" id="svg_105" fill="url(#svg_53)" d="m514.94,549.99c0,0 -37.16,23.84 -70.57,16.81c-33.4,-7.03 -59.86,-24.46 -59.86,-24.46s26.98,-21.21 48.19,-24.16c21.21,-2.95 46.46,13.26 45.86,11.44c-0.6,-1.82 -31.89,-22.89 -40.3,-41.09c-8.41,-18.2 -12.01,-56.61 -12.01,-56.61s33.14,10.79 45.2,24.16c12.06,13.37 29.14,45.41 29.14,45.41s-13.98,-28.37 -10.72,-57.19c3.26,-28.82 26.68,-59.52 26.68,-59.52s22.24,26.61 23.56,59.8c1.33,33.2 -13.24,60.52 -13.24,60.52s22.17,-32.14 39.53,-41.64c17.36,-9.5 48.58,-2.6 48.58,-2.6s-15.78,38.34 -34.12,50.74c-18.34,12.41 -39.59,16.95 -39.59,16.95s28.18,-9.48 48.63,-4.2c20.45,5.29 42.67,23.3 42.67,23.3s-37.38,18.51 -66.43,14.76c-29.07,-3.74 -51.2,-12.42 -51.2,-12.42z"/>
      <path stroke="null" id="svg_106" fill="url(#svg_52)" d="m549.91,526.16c-5.24,1.26 -8.65,2.39 -8.65,2.39s3.42,-0.73 8.65,-2.39z"/>
      <path stroke="null" id="svg_107" fill="url(#svg_51)" d="m439.86,451.46c0,0 28.31,63.86 71.7,88.01c-7.81,-8.3 -25.39,-21.03 -40.11,-42.07c-14.73,-21.04 -31.59,-45.94 -31.59,-45.94z"/>
      <path stroke="null" id="svg_108" fill="url(#svg_50)" d="m511.7,542.53c0,0 -64.06,3.84 -90.22,1.37c-19.25,-1.35 -28.33,-2.29 -28.33,-2.29s16.24,5.79 57.12,6.85c40.87,1.07 61.43,-5.93 61.43,-5.93z"/>
     </g>
     <g stroke="null" id="svg_109" fill="#000000" class="color000 svgShape">
      <path stroke="null" id="svg_110" fill="url(#svg_49)" d="m296.7,460.14c0,0 40.9,-16.62 54.41,-47.97c13.51,-31.35 14.53,-63.01 14.53,-63.01s-32.89,9.81 -47.52,25.45c-14.63,15.63 -15.95,45.6 -17.09,44.06c-1.14,-1.54 -0.32,-39.25 -10.35,-56.62c-10.03,-17.36 -39.33,-42.45 -39.33,-42.45s-10.29,33.3 -6.32,50.86c3.97,17.56 20.31,49.99 20.31,49.99s-15.12,-27.78 -40.55,-41.73c-25.43,-13.95 -64.01,-12.52 -64.01,-12.52s8.92,33.51 35.28,53.73c26.36,20.22 57.08,24.07 57.08,24.07s-39.04,-0.41 -56.81,8.29c-17.77,8.71 -30.13,38.2 -30.13,38.2s40.42,9.21 61.13,1.38c20.71,-7.83 36.67,-22.57 36.67,-22.57s-23.99,17.55 -31.46,37.31c-7.47,19.76 -5.56,48.29 -5.56,48.29s36.67,-19.87 50.36,-45.77c13.7,-25.9 19.36,-48.99 19.36,-48.99z"/>
      <path stroke="null" id="svg_111" fill="url(#svg_48)" d="m257.07,474.98c4.06,-3.55 6.94,-5.68 6.94,-5.68s-2.57,2.36 -6.94,5.68z"/>
     </g>
     <g stroke="null" id="svg_112" fill="#000000" class="color000 svgShape">
      <path stroke="null" id="svg_113" fill="url(#svg_47)" d="m331.78,548.38c0,0 39.15,20.41 71.79,10.41c32.64,-10 57.43,-29.73 57.43,-29.73s-28.77,-18.71 -50.16,-19.74c-21.39,-1.03 -45.08,17.37 -44.65,15.5c0.43,-1.87 29.71,-25.66 36.45,-44.54c6.74,-18.88 6.89,-57.46 6.89,-57.46s-32.04,13.72 -42.86,28.12c-10.81,14.4 -24.95,47.84 -24.95,47.84s11.38,-29.51 5.55,-57.92c-5.83,-28.41 -31.9,-56.89 -31.9,-56.89s-19.76,28.49 -18.1,61.67c1.65,33.18 18.62,59.09 18.62,59.09s-24.96,-30.02 -43.1,-37.93c-18.14,-7.91 -48.62,1.77 -48.62,1.77s19.15,36.77 38.53,47.48c19.37,10.71 40.95,13.33 40.95,13.33s-28.91,-6.92 -48.81,0.18c-19.89,7.1 -40.4,27.03 -40.4,27.03s38.89,15.08 67.49,8.75c28.59,-6.32 49.85,-16.96 49.85,-16.96z"/>
      <path stroke="null" id="svg_114" fill="#1c009f" d="m315.37,383.98c0,0 26.07,28.48 31.9,56.89c5.83,28.41 -5.55,57.92 -5.55,57.92s14.14,-33.45 24.95,-47.84c10.81,-14.4 42.86,-28.12 42.86,-28.12s-0.14,38.58 -6.89,57.46c-6.74,18.88 -36.02,42.68 -36.45,44.54c-0.43,1.87 23.26,-16.54 44.65,-15.5c21.39,1.03 50.16,19.74 50.16,19.74s-24.79,19.73 -57.43,29.73c-32.64,10 -71.79,-10.41 -71.79,-10.41s-0.37,0.18 -1.05,0.51c3.31,-72.44 -15.36,-164.92 -15.36,-164.92z" opacity="0.3" class="color00759f svgShape"/>
      <path stroke="null" id="svg_115" fill="url(#svg_46)" d="m294.81,527.79c5.33,0.79 8.82,1.61 8.82,1.61s-3.46,-0.43 -8.82,-1.61z"/>
      <path stroke="null" id="svg_116" fill="url(#svg_45)" d="m397.72,443.52c0,0 -22.47,66.14 -63.52,94.08c7.03,-8.96 23.4,-23.22 36.18,-45.49c12.78,-22.28 27.34,-48.59 27.34,-48.59z"/>
      <path stroke="null" id="svg_117" fill="url(#svg_44)" d="m334.34,540.66c0,0 64.15,-1.92 89.98,-6.72c19.05,-3.07 28.01,-4.82 28.01,-4.82s-15.65,7.22 -56.27,11.95c-40.62,4.73 -61.72,-0.41 -61.72,-0.41z"/>
      <path stroke="null" id="svg_118" fill="url(#svg_43)" d="m328.38,539.21c0,0 -24.21,-25.12 -46.73,-41.56c-22.51,-16.45 -48.18,-25.53 -48.18,-25.53s33.71,20.19 46.35,29.27c12.63,9.08 48.56,37.82 48.56,37.82z"/>
     </g>
     <g stroke="null" id="svg_119" fill="#000000" class="color000 svgShape">
      <path stroke="null" id="svg_120" d="m325.73,237.32c0,0 4.36,21.59 -17.93,33.39c-7.46,2.58 -21.36,2.83 -29.09,-4.55c11.34,5.51 21.44,6.43 28.9,3.52c4.24,-3.53 16.42,-8.15 18.12,-32.36z" fill="#000000" class="color000 svgShape"/>
      <path stroke="null" id="svg_121" d="m313.79,239.55c0,0 4.87,18.47 -6.28,30.7c-11.07,-2.44 -20.24,-10.9 -22.92,-16.91c3.59,4.13 13.38,13.87 22.4,16.06c4.23,-7.13 8.42,-16.1 6.8,-29.85z" fill="#000000" class="color000 svgShape"/>
      <path stroke="null" id="svg_122" d="m306.23,249.74c0,0 5.64,12.82 1.67,20.06c-2.11,-1.23 -12.28,-10.44 -15.16,-24.52c4.22,7.86 5.71,14.87 14.53,22.48c1.13,-4.82 -0.67,-16.1 -1.04,-18.02z" fill="#000000" class="color000 svgShape"/>
      <path stroke="null" id="svg_123" fill="url(#svg_42)" d="m326,242.01c0,0 3.24,-1.9 3.59,-6.76c0.36,-4.86 -2.52,-6.6 -4.03,-4.52c-0.65,-1.47 -1.31,-0.74 -1.32,0.21c-0.91,-0.92 -2.7,-0.97 -2.93,1.15c-0.23,2.12 1.62,9.48 4.69,9.92z"/>
      <path stroke="null" id="svg_124" fill="url(#svg_41)" d="m314.1,243.33c0,0 3.69,-2.32 2,-7.75c-1.05,-2.8 -2.49,-3.01 -2.82,-2.27c-0.41,-0.33 -2.13,-0.59 -2.22,0.89c-0.86,-0.46 -2.35,0.77 -1.94,2.49c0.39,1.72 1.34,5.8 4.98,6.64z"/>
      <path stroke="null" id="svg_125" fill="url(#svg_40)" d="m307.27,254.17c0,0 2.93,-1.95 1.22,-6.61c-1.09,-3.16 -2.63,-2.1 -2.65,-1.43c-0.59,-0.89 -1.59,-0.72 -1.7,0.07c-0.86,-0.41 -1.93,0.82 -1.53,2.53c0.4,1.71 1.68,5.21 4.66,5.44z"/>
      <path stroke="null" id="svg_126" fill="url(#svg_39)" d="m294.4,249.66c0,0 2.82,-1.35 2.05,-5.7c-0.77,-4.35 -3.17,-7.1 -4.05,-5.35c-0.87,-0.66 -2.34,-1.93 -3.67,0.58c-1.59,0.37 -1.33,2.84 -0.63,4.65c0.69,1.8 3.27,5.95 6.3,5.82z"/>
      <path stroke="null" id="svg_127" fill="url(#svg_38)" d="m283.89,269.23c0,0 0.84,-3.02 -2.94,-5.3c-3.78,-2.28 -7.43,-2.29 -6.7,-0.47c-1.07,0.22 -2.99,0.49 -1.98,3.15c-0.77,1.44 1.26,2.87 3.09,3.53c1.82,0.66 6.64,1.45 8.53,-0.91z"/>
      <path stroke="null" id="svg_128" fill="url(#svg_37)" d="m287.02,256.26c0,0 1.36,-1.38 -0.33,-4.36c-1.1,-2.23 -4.52,-5.99 -5.06,-3.1c-1.59,0.03 -3.41,-0.39 -2.65,2.84c-1.45,0.84 -0.16,2.37 1.31,3.86c1.48,1.48 5.3,1.99 6.73,0.76z"/>
      <path stroke="null" id="svg_129" d="m308.52,268.42c0,0 0.06,0.11 0.18,0.34c1.96,3.77 19.45,38.11 12.43,48.75c0.69,-5.42 -0.16,-12.2 -4.96,-25.87c-4.8,-13.67 -9.17,-22.25 -9.17,-22.25l1.59,-0.85" fill="#000000" class="color000 svgShape"/>
     </g>
     <g stroke="null" id="svg_130" fill="#000000" class="color000 svgShape">
      <path stroke="null" id="svg_131" d="m480.14,244.77c0,0 -4.36,21.59 17.93,33.39c7.46,2.58 21.36,2.83 29.09,-4.55c-11.34,5.51 -21.44,6.43 -28.9,3.52c-4.24,-3.53 -16.42,-8.15 -18.12,-32.36z" fill="#000000" class="color000 svgShape"/>
      <path stroke="null" id="svg_132" d="m492.08,247c0,0 -4.87,18.47 6.28,30.7c11.07,-2.44 20.24,-10.9 22.92,-16.91c-3.59,4.13 -13.38,13.87 -22.4,16.06c-4.23,-7.12 -8.41,-16.1 -6.8,-29.85z" fill="#000000" class="color000 svgShape"/>
      <path stroke="null" id="svg_133" d="m499.64,257.19c0,0 -5.64,12.82 -1.67,20.06c2.11,-1.23 12.28,-10.44 15.16,-24.52c-4.22,7.86 -5.71,14.87 -14.53,22.48c-1.13,-4.82 0.67,-16.1 1.04,-18.02z" fill="#000000" class="color000 svgShape"/>
      <path stroke="null" id="svg_134" fill="url(#svg_36)" d="m479.87,249.46c0,0 -3.24,-1.9 -3.59,-6.76c-0.36,-4.86 2.52,-6.6 4.03,-4.52c0.65,-1.47 1.31,-0.74 1.32,0.21c0.91,-0.92 2.7,-0.97 2.93,1.15c0.23,2.12 -1.62,9.48 -4.69,9.92z"/>
      <path stroke="null" id="svg_135" fill="url(#svg_35)" d="m491.77,250.78c0,0 -3.69,-2.32 -2,-7.75c1.05,-2.8 2.49,-3.01 2.82,-2.27c0.41,-0.33 2.13,-0.59 2.22,0.89c0.86,-0.46 2.35,0.77 1.94,2.49c-0.39,1.73 -1.34,5.81 -4.98,6.64z"/>
      <path stroke="null" id="svg_136" fill="url(#svg_34)" d="m498.6,261.62c0,0 -2.93,-1.95 -1.22,-6.6c1.09,-3.16 2.63,-2.1 2.65,-1.43c0.59,-0.89 1.59,-0.72 1.7,0.07c0.86,-0.41 1.93,0.82 1.53,2.53c-0.4,1.7 -1.67,5.2 -4.66,5.43z"/>
      <path stroke="null" id="svg_137" fill="url(#svg_33)" d="m511.48,257.11c0,0 -2.82,-1.35 -2.05,-5.7c0.77,-4.35 3.16,-7.1 4.05,-5.35c0.87,-0.66 2.34,-1.93 3.67,0.58c1.59,0.37 1.33,2.84 0.63,4.65c-0.7,1.8 -3.28,5.95 -6.3,5.82z"/>
      <path stroke="null" id="svg_138" fill="url(#svg_32)" d="m521.98,276.68c0,0 -0.84,-3.02 2.94,-5.3c3.78,-2.28 7.43,-2.29 6.7,-0.47c1.07,0.22 2.99,0.49 1.98,3.15c0.77,1.44 -1.26,2.87 -3.09,3.53c-1.82,0.66 -6.64,1.45 -8.53,-0.91z"/>
      <path stroke="null" id="svg_139" fill="url(#svg_31)" d="m518.85,263.71c0,0 -1.36,-1.38 0.33,-4.36c1.1,-2.23 4.52,-5.99 5.06,-3.1c1.59,0.03 3.41,-0.39 2.65,2.84c1.45,0.84 0.16,2.37 -1.31,3.86c-1.48,1.49 -5.29,1.99 -6.73,0.76z"/>
      <path stroke="null" id="svg_140" d="m497.35,275.88c0,0 -0.06,0.11 -0.18,0.34c-1.96,3.77 -19.45,38.11 -12.43,48.75c-0.69,-5.42 0.16,-12.2 4.96,-25.87c4.8,-13.67 9.17,-22.25 9.17,-22.25l-1.59,-0.85" fill="#000000" class="color000 svgShape"/>
     </g>
     <ellipse stroke="null" id="svg_141" cx="415.49" cy="570.83" fill="url(#svg_30)" rx="305.07" ry="24.03"/>
     <g stroke="null" id="svg_142" fill="#000000" class="color000 svgShape">
      <path stroke="null" id="svg_143" fill="url(#svg_29)" d="m399.61,238.71l-33.52,57.83c0,0 41.07,36.04 48.61,32.69c7.54,-3.35 44.42,-17.6 44.42,-17.6s0.84,-20.95 -1.68,-27.66c-2.51,-6.7 -33.52,-55.31 -36.04,-53.64c-2.52,1.68 -21.79,8.38 -21.79,8.38z"/>
      <path stroke="#1f2023" id="svg_144" stroke-miterlimit="10" stroke-width="2" d="m270.8,499.03c1.68,1.12 14.81,19 32.97,31.57s42.74,24.86 42.74,24.86l136.89,2.23c0,0 30.73,-13.13 49.73,-29.33c19,-16.2 23.19,-28.5 23.19,-28.5l-113.42,8.66l-1.12,-1.12l-56.99,0.56" fill="#000000" class="color000 svgShape colorStroke231f20 svgStroke"/>
      <path stroke="null" id="svg_145" fill="url(#svg_28)" d="m374.45,200.57c0,0 3.54,24.96 12.66,35.95s18.44,17.69 25.52,17.69c7.08,0 21.23,-8.38 27.56,-20.67s9.13,-32.59 9.13,-32.59s14.71,-35.57 -17.13,-39.48c-31.85,-3.91 -49.73,-10.06 -52.15,-2.79c-2.42,7.25 -5.59,41.89 -5.59,41.89z"/>
      <path stroke="null" id="svg_146" d="m434.05,170.58c0.31,-0.5 15.09,23.47 13.41,36.69s-6.33,26.26 -9.5,30.36c-3.17,4.1 -11.73,11.17 -11.73,11.17s-0.75,18.81 6.52,28.5s20.86,15.83 27.01,16.39c6.15,0.56 11.73,1.3 11.17,1.3c-0.56,0 -8.75,-25.33 -5.59,-43.21c3.17,-17.88 -0.74,-68.35 -7.64,-87.16c-6.89,-18.81 -11.36,-20.3 -11.36,-20.3s-18.81,-17.69 -56.99,-5.21c-22.04,7.2 -27.01,32.03 -26.82,59.04c0.19,27.01 2.98,48.61 -4.47,69.66c-7.45,21.05 -5.96,27.38 -5.96,27.38s28.31,-0.56 36.69,-9.13c8.38,-8.57 10.43,-14.71 10.99,-21.6c0.56,-6.89 1.12,-14.71 1.12,-14.71s-14.16,-8.01 -19.37,-23.47c-5.21,-15.46 -5.59,-16.76 -5.59,-16.76s10.8,-5.03 23.65,-17.51c12.85,-12.48 14.15,-15.09 14.15,-15.09l-8.75,13.78c0,0 16.95,-0.93 29.06,-20.12z" fill="#000000" class="color000 svgShape"/>
      <path stroke="null" id="svg_147" fill="url(#svg_27)" d="m366.63,293.97c0,0 -21.23,0 -26.54,7.26c-5.31,7.26 -36.32,94.15 -34.92,99.73s49.17,68.17 49.17,68.17s1.4,-33.8 1.12,-35.48c-0.28,-1.68 -25.7,-39.39 -25.7,-40.23s24.31,-44.98 24.31,-44.98l12.56,-54.47z"/>
      <path stroke="null" id="svg_148" fill="url(#svg_26)" d="m459.66,293.97c0,0 21.23,0 26.54,7.26s36.32,94.15 34.92,99.73s-49.17,68.17 -49.17,68.17s-1.4,-33.8 -1.12,-35.48c0.28,-1.68 25.7,-39.39 25.7,-40.23s-24.31,-44.98 -24.31,-44.98l-12.56,-54.47z"/>
      <path stroke="null" id="svg_149" fill="url(#svg_25)" d="m457.14,292.85c0,0 -12.57,18.16 -41.63,19.56c-29.05,1.4 -44.14,-19 -44.14,-19l-4.75,0.56c0,0 -11.73,25.14 -12.85,42.18c-1.12,17.04 1.96,24.86 6.15,32.97s7.82,8.94 7.82,8.94l1.68,114.54c0,0 77.66,8.38 77.39,7.54c-0.28,-0.84 15.64,-121.25 15.64,-122.36c0,-1.12 9.22,-19.84 9.78,-33.52s-8.94,-49.73 -8.94,-49.73l-6.15,-1.68z"/>
      <path stroke="null" id="svg_150" fill="url(#svg_24)" d="m335.62,510.2c0,0 -12.57,-114.82 -12.29,-115.94c0.28,-1.12 -1.12,-5.59 14.53,-5.31c15.64,0.28 159.8,0 159.8,0s8.66,-1.68 7.82,9.78c-0.84,11.45 -6.15,106.72 -6.15,106.72l-163.71,4.75z"/>
      <circle stroke="null" id="svg_151" cx="412.44" cy="442.88" r="12.01" fill="#ffffff" opacity="0.3" class="colorfff svgShape"/>
      <path stroke="null" id="svg_152" fill="url(#svg_23)" d="m434.98,530.04c-0.52,-1.8 -35.48,-17.32 -45.26,-25.42c-9.78,-8.1 -38.27,-24.31 -61.46,-32.69c-23.19,-8.38 -43.3,-18.16 -48.05,-19.56c-4.75,-1.4 -13.69,-2.51 -22.35,8.94s-7.82,20.95 -0.28,28.5c7.54,7.54 36.88,33.25 63.42,40.79s45.54,11.45 66.21,17.32c20.67,5.87 33.52,10.06 33.52,10.06s19.28,-10.62 14.25,-27.94z"/>
      <path stroke="null" id="svg_153" fill="url(#svg_22)" d="m423.62,556.58c0,0 9.5,0.84 12.57,3.07c3.07,2.23 8.94,5.59 12.01,5.59c3.07,0 13.97,1.68 21.51,5.03c7.54,3.35 24.31,12.85 28.22,11.17c3.91,-1.68 3.91,-1.68 3.91,-1.68s2.79,0 4.47,-1.4c1.68,-1.4 1.96,-2.79 1.96,-2.79s3.07,0 4.47,-1.4c1.4,-1.4 1.4,-3.91 1.4,-3.91s2.51,0.28 3.35,-1.4c0.84,-1.68 0.84,-1.68 0.84,-1.68s3.07,-1.96 4.19,-4.19c1.12,-2.23 1.12,-2.51 0.56,-3.35c-0.56,-0.84 -11.73,-8.38 -14.25,-8.38c-2.51,0 -14.81,-1.4 -21.51,-3.35c-6.7,-1.96 -11.17,-2.51 -24.03,-4.19c-12.85,-1.67 -39.67,12.86 -39.67,12.86z"/>
      <path stroke="null" id="svg_154" fill="url(#svg_21)" d="m398.48,531.16c0.52,-1.8 35.48,-17.32 45.26,-25.42c9.78,-8.1 38.27,-24.31 61.46,-32.69c23.19,-8.38 43.3,-18.16 48.05,-19.56c4.75,-1.4 13.69,-2.51 22.35,8.94s7.82,20.95 0.28,28.5c-7.54,7.54 -36.88,33.25 -63.42,40.79c-26.54,7.54 -45.54,11.45 -66.21,17.32c-20.67,5.87 -33.52,10.06 -33.52,10.06s-19.28,-10.62 -14.25,-27.94z"/>
      <path stroke="null" id="svg_155" fill="url(#svg_20)" d="m398.1,532.83c0,0 -30.92,15.27 -36.32,15.27s-6.71,-1.86 -9.31,-2.98c-2.61,-1.12 -7.64,-0.56 -14.9,2.79c-7.26,3.35 -12.48,6.33 -17.32,5.96c-4.84,-0.37 -14.71,-3.35 -20.3,-0.56c-5.59,2.79 -16.02,12.85 -12.29,16.76c3.73,3.91 13.41,8.2 17.51,5.96c4.1,-2.23 15.46,-2.79 24.77,-1.86c9.31,0.93 19.74,3.91 27.01,1.3s20.11,-10.06 31.1,-12.85c10.99,-2.79 22.16,-4.84 22.16,-4.84s-14.53,-7.25 -12.11,-24.95z"/>
      <path stroke="null" id="svg_156" fill="#ffffff" d="m505.52,397.07c-0.09,-9.61 -7.87,-8.12 -7.87,-8.12s-144.15,0.28 -159.8,0c-15.64,-0.28 -14.25,4.19 -14.53,5.31c-0.02,0.09 0.03,0.86 0.15,2.2c1.3,-1.86 2.89,-4.99 11.92,-4.99c10.43,0 161.29,0 161.29,0s5.69,-0.28 8.84,5.6z" class="colorfff svgShape"/>
     </g>
     <g stroke="null" id="svg_157" fill="#000000" class="color000 svgShape">
      <path stroke="null" id="svg_158" d="m606.57,574.41l-38.06,-174.47l-4.43,0.63l2.56,11.75c0.67,0.74 -17.03,0 -17.03,0l-2.69,-12.35l-4.56,0.04l38.25,175.34c0.26,1.21 1.45,1.97 2.66,1.71c1.2,-0.26 1.97,-1.45 1.71,-2.66l-2.8,-12.85l17.03,0l3.01,13.8c0.26,1.21 1.45,1.97 2.66,1.71s1.95,-1.44 1.69,-2.65zm-56.13,-158.27l17.03,0l2.69,12.35l-17.03,0l-2.69,-12.35zm3.53,16.16l17.03,0l2.7,12.35l-17.03,0l-2.7,-12.35zm3.52,16.16l17.03,0l2.69,12.35l-17.03,0l-2.69,-12.35zm3.53,16.15l17.03,0l2.69,12.35l-17.03,0l-2.69,-12.35zm3.52,16.16l17.03,0l2.69,12.35l-17.03,0l-2.69,-12.35zm3.53,16.16l17.03,0l2.69,12.35l-17.03,0l-2.69,-12.35zm3.52,16.16l17.03,0l2.69,12.35l-17.03,0l-2.69,-12.35zm3.53,16.16l17.03,0l2.69,12.35l-17.03,0l-2.69,-12.35zm6.22,28.51l-2.69,-12.35l17.03,0l2.69,12.35l-17.03,0z" fill="#000000" class="color000 svgShape"/>
      <path stroke="null" id="svg_159" fill="url(#svg_19)" d="m582.04,415.07c0.03,0.06 0.41,7.6 -3.98,6.87c-2.47,-0.41 -3.58,-10.48 -8.1,-17.36c-1.06,-1.61 -4.88,-12.49 -5.69,-14.16c-1.3,-2.7 3.1,-3.23 4.09,-2.1c0.78,0.89 2.87,5.17 6.39,11.04c3.99,6.61 6.52,13.78 7.29,15.71z"/>
      <path stroke="null" id="svg_160" d="m583.9,498.18c-1.99,-0.95 -6.53,-2.24 -7.27,-4.75c-0.02,-0.07 -0.02,-0.13 -0.04,-0.2c-0.57,-2.32 1.19,-2.67 3.19,-2.25c2.05,0.43 8.08,1.54 8.08,1.54s1.06,2.5 1.06,3.98c0,1.5 -3.06,2.62 -5.02,1.68z" fill="#000000" class="color000 svgShape"/>
      <path stroke="null" id="svg_161" fill="#ffffff" d="m587.67,491.22l0.16,1.1c0.06,0.43 -0.15,0.86 -0.54,1.06c-0.68,0.33 -1.85,0.73 -3.3,0.49c-0.44,-0.08 -0.79,-0.43 -0.86,-0.87l-0.2,-1.39l4.74,-0.39z" class="colorfff svgShape"/>
      <path stroke="null" id="svg_162" d="m579.64,514.79c-2.25,-1.07 -7.41,-2.54 -8.24,-5.39c-0.03,-0.08 -0.02,-0.15 -0.04,-0.22c-0.64,-2.63 1.35,-3.03 3.62,-2.56c2.33,0.49 9.17,1.75 9.17,1.75s1.23,2.87 1.23,5.01c-0.01,2.14 -3.52,2.47 -5.74,1.41z" fill="#000000" class="color000 svgShape"/>
      <path stroke="null" id="svg_163" fill="#ffffff" d="m583.92,506.89l0.18,1.24c0.53,1.78 -2.71,2.03 -4.35,1.75c-0.5,-0.09 -0.9,-0.48 -0.97,-0.99l-0.23,-1.58l5.37,-0.42z" class="colorfff svgShape"/>
      <path stroke="null" id="svg_164" fill="url(#svg_18)" d="m588.97,449.63c0,0 1.21,3.84 1.54,8.51c0.41,5.86 -5,12.08 -4.5,15.91c0.9,6.89 2.84,14.09 3.04,16.15c0.2,2.07 -7.17,3.25 -7.71,1.02c-0.54,-2.23 -5.85,-13.72 -6.42,-16.99c-0.99,-5.63 5.97,-8.22 5.97,-8.22s-0.7,15.92 0.16,20.64c0.49,2.68 3.61,17.81 3.95,19.81c0.09,0.55 -0.91,2.1 -2.88,2.45c-2.09,0.37 -4.54,-0.19 -4.87,-1.03c-0.85,-2.2 -3.86,-18.56 -4.33,-21.11c-0.48,-2.55 -1.87,-26.73 -2.28,-28.52c-0.42,-1.8 17.51,-10.44 18.33,-8.62z"/>
      <path stroke="null" id="svg_165" fill="url(#svg_17)" d="m565.81,423.34c-0.04,7 4.33,35.61 5.22,35.92c5.58,1.92 19.13,-6.22 18.95,-8.42c-1.19,-14.41 -5.89,-35.71 -8.73,-36.41c-5.97,-1.49 -15.42,5.48 -15.44,8.91z"/>
      <path stroke="null" id="svg_166" fill="url(#svg_16)" d="m576.3,370.42c0,9.48 -7.68,17.17 -17.17,17.17c-9.48,0 -17.16,-7.69 -17.16,-17.17c0,-9.48 7.68,-17.16 17.16,-17.16c9.48,0 17.17,7.68 17.17,17.16z"/>
      <text stroke="null" id="svg_167" x="547.276" y="376.03" fill="#431ca3" font-family="MyriadPro-Bold" font-size="12.67">PHP</text>
      <path stroke="null" id="svg_168" fill="#f477a2" d="m554.01,449.38c-0.85,0.54 -1.33,1.12 -1.93,2.02c-0.9,1.29 1,5.19 2.19,4.09c-0.24,-1.22 1.54,-1.81 2.18,-2.12c2.11,-1 2.32,-2.03 2.18,-2.83c-0.39,-2.19 -1.98,-2.84 -4.62,-1.16z" class="colorf4a477 svgShape"/>
      <path stroke="null" id="svg_169" fill="url(#svg_15)" d="m565.02,440.45c-0.17,2.48 -7.03,5.89 -8.07,7.44c-0.95,1.42 -0.13,3.51 2.53,3.32c1.35,-0.14 12.61,-6.26 12.86,-8.57c0.45,-4.19 0.55,-22.42 -4.62,-21.92c-4.42,0.42 -2.52,17.25 -2.7,19.73z"/>
      <path stroke="null" id="svg_170" fill="#f477a2" d="m576.18,404c-0.7,-4.77 -4.56,-6.69 -9.48,-4.56c-5.88,2.56 -3.49,7.2 -3.12,9.23c0.47,2.62 1.59,7.78 3.05,8.18c1.05,0.29 1.8,-0.19 2.9,-0.56c0.38,1.41 0.33,2.18 0.56,2.37c1.07,0.89 6.23,-1.47 6.03,-3.18c-0.09,-0.78 -0.24,-2.07 -0.33,-3.35c-0.38,-3.36 0.97,-4.23 0.39,-8.13z" class="colorf4a477 svgShape"/>
      <path stroke="null" id="svg_171" fill="#1c00a2" d="m569.27,407.74c-0.9,-0.37 -1.8,0.14 -2.18,1.99c-0.03,0.14 -0.93,0.49 -0.91,0.22c0.63,-6.3 -2.27,-4.52 -2.91,-5.55c-0.03,-2.79 1.01,-4.93 4.08,-5.87c4.99,-1.53 9.86,0.67 10.56,5.45c0.48,3.27 -1.77,5.51 -1.65,8.78c0.02,0.45 -0.29,0.32 -1.24,0.55c-0.74,0.18 -1.6,1 -2.36,0.86c-0.95,-0.18 -3.04,-2.1 -2.79,-3.36c0.24,-1.15 0.32,-2.69 -0.6,-3.07z" class="color0078a2 svgShape"/>
      <path stroke="null" id="svg_172" fill="url(#svg_14)" d="m582.5,491.8c0,0 -1.95,-12.32 -1.76,-14.97c0.19,-2.65 0.92,-16.64 0.92,-16.64l1.88,-1.68c0,0 -1.86,15.59 -1.62,20.19s0.58,13.1 0.58,13.1z"/>
      <path stroke="null" id="svg_173" fill="#f477a2" d="m563.87,388.89c-0.44,-0.78 0.01,-3.64 0.7,-5.41c0.74,-1.91 2.06,-5.73 3.11,-5.25c0.66,0.3 -0.24,3.21 -0.24,6.31c0,1.97 -0.53,3.88 -0.86,4.76c-0.24,0.66 -2.11,0.75 -2.71,-0.41z" class="colorf4a477 svgShape"/>
     </g>
     <g stroke="null" id="svg_174" fill="#000000" class="color000 svgShape">
      <path stroke="null" id="svg_175" fill="url(#svg_13)" d="m314.58,347.9c0,-11.73 -9.51,-21.24 -21.24,-21.24c-11.73,0 -21.24,9.51 -21.24,21.24c0,11.73 9.51,21.24 21.24,21.24c11.73,0.01 21.24,-9.5 21.24,-21.24z"/>
      <text stroke="null" id="svg_176" x="274.01001" y="353.26401" fill="#125cae" font-family="MyriadPro-Bold" font-size="17.406">CSS3</text>
      <path stroke="null" id="svg_177" fill="#ffffff" d="m280.35,451.86c0,0 -0.06,1.03 -0.09,1.9c-0.01,0.23 -0.01,0.45 -0.01,0.64c0,0.27 1.38,0.49 2.51,0.18c0.89,-0.24 1.66,-0.93 1.3,-1.34c-0.38,-0.42 -0.77,-1.9 -0.77,-1.9l-2.94,0.52z" class="colorfff svgShape"/>
      <path stroke="null" id="svg_178" d="m280.27,453.76c0,0 2.07,0.9 3.8,-0.52c0.93,-0.04 8.83,1.69 8.04,2.95c-0.8,1.28 -11.03,1.8 -11.93,1.12c-0.35,-0.26 -0.27,-2.68 0.09,-3.55z" fill="#000000" class="color000 svgShape"/>
      <path stroke="null" id="svg_179" fill="#ebafc4" d="m263.81,449.69c0,0 -0.18,1.01 -0.3,1.87c-0.03,0.23 -0.06,0.44 -0.08,0.64c-0.03,0.27 1.32,0.64 2.48,0.46c0.91,-0.14 1.76,-0.74 1.44,-1.19c-0.33,-0.46 -0.56,-1.97 -0.56,-1.97l-2.98,0.19z" class="colorebbeaf svgShape"/>
      <path stroke="null" id="svg_180" d="m277.76,408.82l-6.91,-2.81c-0.49,7.12 0.2,12.77 -1.81,23.51c-0.85,4.52 -4.99,15.04 -6.6,20.19c0.47,1.1 5.13,1.23 5.77,0.08c0.83,-1.76 6.26,-11.77 7.75,-18.17c0.68,-2.96 1.83,-15.64 1.8,-22.8zm-14.25,42.75c0,0 1.95,1.13 3.83,-0.09c0.93,0.06 8.6,1.59 7.75,3.27c-0.34,0.67 -11.24,1.12 -12.06,0.35c-0.31,-0.31 0.04,-2.7 0.48,-3.53z" fill="#000000" class="color000 svgShape"/>
      <path stroke="null" id="svg_181" fill="#ffffff" d="m273.48,376.16c0,0 0.61,-2.05 0.45,-3.06c-0.16,-1.01 -2.43,-2.39 -2.79,-4.5c-0.36,-2.11 0.86,-4.94 4.02,-5.16c4.77,-0.34 4.62,3.39 4.79,4.68c0.28,2.09 0.06,5.42 -0.42,5.65c-0.14,0.07 -0.73,0.14 -1.76,-0.21c-0.18,0.52 -0.64,2.95 -0.29,3.7c0.35,0.75 -4,-1.1 -4,-1.1z" class="colorfff svgShape"/>
      <path stroke="null" id="svg_182" d="m271.09,401.45c-0.24,1.56 -0.4,3.28 -0.25,4.57c0.76,6.19 5.35,13.95 6.91,24.28c0.69,4.55 1.03,16.92 1.23,21.73c0.59,1.05 5.23,0.65 5.74,-0.55c-0.51,-2.26 1.83,-17.42 1.17,-25.11c-0.28,-3.29 -5.09,-26.19 -5.09,-26.19s-6.51,-0.57 -9.71,1.27z" fill="#000000" class="color000 svgShape"/>
      <path stroke="null" id="svg_183" fill="url(#svg_12)" d="m277.92,376.44c0,0 -2.96,-1.92 -5.37,-1.54c-0.34,0.22 -0.45,1.27 -0.91,2.54c-0.5,1.39 -1.34,3.08 -1.54,4.99c-0.34,3.35 0.3,12.44 -0.33,20.89c0.99,1.59 8.64,4.04 12.68,0.45c0,0 -1.05,-5.19 -1.29,-9.39c-0.25,-4.35 2.7,-4.81 2.14,-8.24c-0.36,-2.2 -4.38,-4.81 -5.47,-8.12c-0.14,-0.44 0.17,-1.09 0.09,-1.58z"/>
      <path stroke="null" id="svg_184" fill="url(#svg_11)" d="m279.65,363.88c1.57,3.57 -3.26,3.38 -4.51,9.82c-0.81,4.16 -5.2,5.58 -5.04,11.86c-2.76,-0.54 -3.94,-5.06 -1.01,-10.21c1.88,-3.3 0.35,-6.68 0.88,-9.31c1.06,-5.23 8.2,-5.51 9.68,-2.16z"/>
      <path stroke="null" id="svg_185" fill="#ffffff" d="m273.4,382.33c0.29,-2.28 2.48,-2.18 6.37,-2.82c1.82,-0.3 5.17,-0.98 7.75,-1.87c1.05,-0.36 2.58,-10.84 2.73,-13.66c0.06,-1.22 -0.82,-1.49 -1.36,-2.51c-0.53,-1.01 -0.85,-2.73 -0.31,-2.9c0.4,-0.13 0.72,1.42 1.02,1.49c-0.11,-1.2 -0.45,-3.03 0.02,-4.23c0.47,-1.2 2.21,-0.43 2.62,-0.04c0.5,0.47 0.65,1.22 0.74,2.3c0.12,1.29 0.59,3.01 0.18,3.88c-0.35,0.76 -0.68,1.79 -0.67,2.33c0.01,0.54 -0.14,15.66 -1.48,16.55c-1.82,1.21 -6.88,2.79 -11.55,3.6c-3.7,0.63 -6.29,-0.33 -6.06,-2.12z" class="colorfff svgShape"/>
     </g>
     <g stroke="null" id="svg_186" fill="#000000" class="color000 svgShape">
      <path stroke="null" id="svg_187" fill="url(#svg_10)" d="m600.62,475.05c0,-14.62 11.85,-26.47 26.47,-26.47c14.62,0 26.47,11.85 26.47,26.47c0,14.62 -11.85,26.47 -26.47,26.47c-14.62,-0.01 -26.47,-11.86 -26.47,-26.47z"/>
      <text stroke="null" id="svg_188" x="605.44098" y="481.49799" fill="#AF84A3" font-family="MyriadPro-Bold" font-size="19.958">Java</text>
      <path stroke="null" id="svg_189" fill="#ffffff" d="m654.03,451.15l2.53,0.95c0.82,0.31 1.47,0.96 1.78,1.78l1.21,3.24c0.45,1.21 0.53,2.53 0.23,3.78c-0.41,1.71 -1.23,3.28 -2.37,4.61c5.24,0.73 9.46,0.84 14.6,-0.04c-1.36,-4.25 -2.4,-7.95 -5.36,-11.31l-1.12,-1.33c0.39,-0.07 1.37,-8.96 0.17,-11.01c-2.34,-4 -7.09,-3.16 -8.45,-2.22c-1.97,1.59 -1.52,3.45 -2.27,4.2c-0.83,0.84 -1.52,0.87 -1.56,1.21c-0.04,0.34 0.41,0.65 0.55,0.87c-0.17,1.68 -0.86,3.02 -0.83,4.06c0.02,0.43 0.47,1.05 0.89,1.21z" class="colorfff svgShape"/>
      <path stroke="null" id="svg_190" fill="#fc85ae" d="m658.34,453.88l0.56,1.5c-0.48,-2.45 1.36,-3.59 1.36,-3.59c-0.01,0 -0.93,0.33 -2.42,0.24c-0.72,-0.04 -1.78,-0.28 -2.3,-0.42c-0.52,-0.15 -1.27,-0.37 -1.27,-0.37l0,0l2.29,0.86c0.82,0.3 1.47,0.95 1.78,1.78z" opacity="0.35" class="colorf58f9e svgShape"/>
      <path stroke="null" id="svg_191" fill="#ffffff" d="m693.88,550.19c0,0 1.01,1.28 3.16,2.64c2.1,1.32 4.2,2.62 3.89,3.24c-0.31,0.62 -5.32,7.94 -8.25,9.63c-2.93,1.7 -0.42,-1.49 -0.26,-2.26c0.16,-0.77 1.65,-4.44 0.42,-6.14c-1.23,-1.69 -2.7,-2.7 -2.31,-3.47c0.38,-0.77 2.31,-4.16 3.35,-3.64z" class="colorfff svgShape"/>
      <path stroke="null" id="svg_192" d="m672.42,503.18c0,0 -0.47,20.6 2,24.3c2.47,3.7 17.62,16.75 20.91,23.32c0,0 -2.05,4.93 -5.75,4.73c0,0 -8.49,-9.97 -14.74,-13.7c-5.33,-3.18 -8.48,-5.92 -9.61,-8.7c-1.13,-2.78 -9.56,-28.98 -9.56,-28.98l16.75,-0.97zm25.56,50.24c0,0 0.64,1.72 -1.25,2.87c-1.6,0.97 -4.15,0.78 -4.02,2.41c0.14,1.79 -0.35,4.83 -1.79,6.59c-1.05,1.29 -4.08,3.73 -3.4,4.33c0.49,0.44 5.4,1.25 10.76,-4.01c5.63,-5.53 5.8,-8.41 5.55,-9c-0.35,-0.75 -2.96,-2.79 -5.85,-3.19z" fill="#000000" class="color000 svgShape"/>
      <g stroke="null" id="svg_193" fill="#000000" class="color000 svgShape">
       <path stroke="null" id="svg_194" fill="#ffffff" d="m652.23,560c0,0 0.08,4.32 -0.31,5.39c-0.39,1.08 -9.32,0.92 -11.33,-0.77c-2,-1.7 4.78,-2.08 6.09,-3.4c0.59,-0.59 1.25,-2.23 1.25,-2.23l4.3,1.01z" class="colorfff svgShape"/>
       <path stroke="null" id="svg_195" d="m671.8,491.21c0,0 2.32,6 1.98,10.34c-0.65,8.38 -11.43,26.34 -12.67,30.04c-1.23,3.7 1.34,9.45 -1.13,15.41c-2.47,5.96 -6.78,13.56 -6.88,13.97c-0.1,0.41 -5.22,0.94 -6.33,-1.68c1.09,-3.54 3.05,-10.22 3.77,-16.29c0.72,-6.06 1.93,-13.92 2.14,-17.72c0.21,-3.8 5.06,-33.47 5.06,-33.47s2.04,0.32 14.06,-0.6zm-19.6,71.59c0,0 -0.59,2.59 -3.16,1.92c-2.57,-0.67 -1.54,-2.32 -2.41,-2.99c-0.54,-0.42 -1.82,-0.16 -4.64,0.47c-3.58,0.8 -9.3,1.17 -9.31,3.19c0,0.98 4.37,3.33 9.59,3.9c5.22,0.57 10.31,-0.51 10.87,-0.82c0.58,-0.31 0.15,-4.05 -0.94,-5.67z" fill="#000000" class="color000 svgShape"/>
      </g>
      <g stroke="null" id="svg_196" fill="#000000" class="color000 svgShape">
       <path stroke="null" id="svg_197" fill="url(#svg_9)" d="m659.23,460.81c0.73,-2.78 4.25,-4.94 7.37,-4.25c2.55,0.56 5.61,5.57 6.12,9.48c0.51,3.9 -1.92,21.11 0.77,27.43c0,0 -13.68,4.34 -19.02,2.53c0,0 1.67,-6.07 2.19,-10.64c0.97,-8.55 -2.6,-9.52 -2.49,-14.21c0.08,-2.95 4.49,-8.18 5.06,-10.34z"/>
       <path stroke="null" id="svg_198" fill="#ffffff" d="m665.91,462.68c2.03,-0.39 3.76,1.42 4.52,6.75c0.96,6.69 1.99,16.39 1.41,19.44c-0.33,1.7 -10.78,-0.48 -20.1,-3.67c-1.43,-0.49 -3.39,1.18 -4.72,1.07c-2.59,-0.22 -6.63,-1.43 -6,-2.83c0.37,-0.83 3.04,-1.3 2.9,-1.41l-3.27,-1.23c0.08,-0.8 1.85,-0.55 3.63,-0.88c2.62,-0.47 4.91,0.01 7.48,0.98c1.83,0.69 10.53,2.54 13.9,1.92c-0.54,-3.76 -1.26,-8.39 -1.64,-10.79c-0.87,-5.56 -1.36,-8.72 1.89,-9.35z" class="colorfff svgShape"/>
       <path stroke="null" id="svg_199" fill="url(#svg_8)" d="m663.23,472.55c2.17,-0.48 4.35,-0.65 6.58,-0.8c0.51,-0.03 1.01,-0.07 1.52,-0.1c-0.09,-0.82 -0.19,-1.62 -0.3,-2.37c-0.76,-5.33 -3.22,-8.41 -5.29,-7.74c-3.11,1.01 -3.46,4.95 -2.6,10.5c0.03,0.16 0.06,0.33 0.09,0.51z"/>
      </g>
      <path stroke="null" id="svg_200" d="m664.9,437.36c-4.14,-1.52 -7.17,1.17 -7.64,2.23c3.15,0.39 0.9,3.65 3.21,5.4c2.14,1.62 1.13,4.04 1.56,8.27c0.7,6.82 8.93,5.46 10.46,11.57c3.08,-7.93 -4.51,-11.66 -3.66,-16.88c0.87,-5.36 -0.5,-9.33 -3.93,-10.59z" fill="#000000" class="color000 svgShape"/>
     </g>
     <g stroke="null" id="svg_201" fill="#000000" class="color000 svgShape">
      <circle stroke="null" id="svg_202" cx="242.47" cy="460.42" r="26.71" fill="url(#svg_7)"/>
      <text stroke="null" id="svg_203" fill="#431ca3" font-family="MyriadPro-Bold" font-size="21.155" transform="matrix(.6795 0 0 1 219.526 467.587)">HTML5</text>
      <path stroke="null" id="svg_204" fill="#042168" d="m218.43,437.87l-2.85,1.06c-0.93,0.35 -1.66,1.08 -2,2l-1.36,3.64c-0.51,1.36 -0.6,2.85 -0.26,4.26c0.46,1.92 1.38,3.7 2.67,5.2c-5.91,0.82 -10.66,0.95 -16.45,-0.05c1.53,-4.79 2.7,-8.96 6.03,-12.74l1.26,-1.5c-0.44,-0.08 -1.55,-10.09 -0.2,-12.41c2.63,-4.51 7.98,-3.56 9.52,-2.5c2.22,1.79 1.71,3.88 2.56,4.73c0.94,0.94 1.72,0.98 1.76,1.36c0.05,0.38 -0.46,0.74 -0.62,0.98c0.19,1.89 0.97,3.4 0.93,4.57c-0.01,0.52 -0.51,1.22 -0.99,1.4z" class="color684204 svgShape"/>
      <path stroke="null" id="svg_205" d="m173.54,549.43c0,0 -1.14,1.44 -3.56,2.97c-2.36,1.49 -4.73,2.95 -4.39,3.65c0.35,0.69 5.99,8.94 9.29,10.85c3.3,1.91 0.47,-1.68 0.3,-2.55c-0.17,-0.87 -1.86,-5.01 -0.47,-6.92c1.39,-1.91 3.04,-3.04 2.6,-3.91c-0.43,-0.85 -2.6,-4.67 -3.77,-4.09z" fill="#000000" class="color000 svgShape"/>
      <path stroke="null" id="svg_206" fill="url(#svg_6)" d="m197.71,496.47c0,0 0.53,23.21 -2.25,27.38c-2.78,4.17 -19.85,18.87 -23.55,26.27c0,0 2.31,5.55 6.48,5.32c0,0 9.56,-11.23 16.6,-15.43c6,-3.58 9.55,-6.67 10.83,-9.8c1.27,-3.13 10.76,-32.64 10.76,-32.64l-18.87,-1.1z"/>
      <path stroke="null" id="svg_207" d="m168.92,553.08c0,0 -0.72,1.94 1.41,3.24c1.8,1.1 4.68,0.88 4.53,2.72c-0.16,2.01 0.39,5.45 2.02,7.43c1.19,1.45 4.6,4.2 3.83,4.88c-0.55,0.49 -6.08,1.41 -12.11,-4.51c-6.35,-6.23 -6.54,-9.48 -6.25,-10.13c0.38,-0.9 3.32,-3.19 6.57,-3.63z" fill="#000000" class="color000 svgShape"/>
      <g stroke="null" id="svg_208" fill="#000000" class="color000 svgShape">
       <path stroke="null" id="svg_209" d="m220.46,560.48c0,0 -0.09,4.86 0.35,6.08c0.43,1.22 10.5,1.04 12.76,-0.87c2.26,-1.91 -5.38,-2.35 -6.86,-3.82c-0.66,-0.66 -1.4,-2.51 -1.4,-2.51l-4.85,1.12z" fill="#000000" class="color000 svgShape"/>
       <path stroke="null" id="svg_210" fill="url(#svg_5)" d="m198.41,482.99c0,0 -2.61,6.76 -2.23,11.65c0.73,9.44 12.88,29.67 14.27,33.84c1.39,4.17 -1.5,10.65 1.27,17.36c2.78,6.71 7.64,15.28 7.76,15.74c0.12,0.46 5.89,1.05 7.12,-1.9c-1.22,-3.99 -3.43,-11.52 -4.24,-18.35c-0.81,-6.83 -2.18,-15.68 -2.41,-19.96c-0.23,-4.28 -5.7,-37.7 -5.7,-37.7s-2.3,0.36 -15.84,-0.68z"/>
       <path stroke="null" id="svg_211" d="m220.49,563.64c0,0 0.67,2.92 3.56,2.17c2.89,-0.75 1.74,-2.62 2.71,-3.36c0.61,-0.47 2.05,-0.18 5.22,0.53c4.03,0.9 10.48,1.32 10.48,3.59c0,1.11 -4.92,3.76 -10.8,4.39c-5.88,0.64 -11.61,-0.58 -12.25,-0.93c-0.63,-0.35 -0.14,-4.56 1.08,-6.39z" fill="#000000" class="color000 svgShape"/>
      </g>
      <g stroke="null" id="svg_212" fill="#000000" class="color000 svgShape">
       <path stroke="null" id="svg_213" fill="url(#svg_4)" d="m212.57,448.75c-0.82,-3.13 -4.79,-5.56 -8.31,-4.79c-2.88,0.63 -6.32,6.27 -6.9,10.67c-0.58,4.4 2.16,23.78 -0.87,30.9c0,0 15.4,4.89 21.42,2.85c0,0 -1.89,-6.84 -2.47,-11.98c-1.09,-9.63 2.93,-10.72 2.8,-16.01c-0.06,-3.32 -5.03,-9.21 -5.67,-11.64z"/>
       <path stroke="null" id="svg_214" fill="#042168" d="m205.05,450.86c-2.28,-0.44 -4.23,1.6 -5.09,7.6c-1.08,7.53 -2.24,18.46 -1.58,21.89c0.37,1.92 12.14,-0.54 22.65,-4.13c1.61,-0.55 3.81,1.33 5.32,1.2c2.91,-0.25 7.46,-1.61 6.76,-3.19c-0.42,-0.94 -3.42,-1.47 -3.26,-1.59l3.69,-1.38c-0.09,-0.9 -2.08,-0.62 -4.09,-0.99c-2.95,-0.53 -5.54,0.01 -8.43,1.1c-2.06,0.78 -11.86,2.86 -15.65,2.16c0.61,-4.23 1.42,-9.45 1.84,-12.15c0.95,-6.25 1.5,-9.82 -2.16,-10.52z" class="color684204 svgShape"/>
       <path stroke="null" id="svg_215" fill="url(#svg_3)" d="m208.06,461.97c-2.44,-0.55 -4.9,-0.74 -7.41,-0.91c-0.57,-0.04 -1.14,-0.08 -1.71,-0.12c0.11,-0.92 0.22,-1.82 0.34,-2.67c0.86,-6 3.63,-9.47 5.96,-8.71c3.5,1.14 3.9,5.57 2.93,11.83c-0.03,0.18 -0.07,0.38 -0.11,0.58z"/>
      </g>
      <path stroke="null" id="svg_216" d="m206.19,422.33c4.67,-1.71 8.07,1.32 8.6,2.51c-3.54,0.43 -1.02,4.11 -3.61,6.08c-2.41,1.82 -1.27,4.55 -1.76,9.32c-0.79,7.68 -10.07,6.15 -11.78,13.03c-3.47,-8.93 5.08,-13.14 4.13,-19.01c-0.99,-6.04 0.56,-10.51 4.42,-11.93z" fill="#000000" class="color000 svgShape"/>
     </g>
    </svg>
   </g>
  </g>
  <path fill="#AF84A3" stroke="#000" opacity="NaN" d="m273.99506,257.32925" id="svg_72"/>
  <path fill="#AF84A3" stroke="#000" opacity="NaN" d="m381.99427,266.66252" id="svg_73"/>
  <ellipse stroke="#FFAFCC" fill="#FFAFCC" cx="605.18482" cy="296.47203" id="svg_76" rx="18.19038" ry="10.04754"/>
  <ellipse stroke="#FFAFCC" fill="#FFAAB8" cx="543.47089" cy="232.80575" id="svg_77" rx="11.04758" ry="6.85711"/>
  <text fill="#000000" x="275.32839" y="261.32922" id="svg_78" stroke-width="0" font-size="21" font-family="Noto Sans JP" text-anchor="start" xml:space="preserve" stroke="#C97A86" transform="matrix(1 0 0 0.426142 0 152.44)"/>
  <text font-style="normal" font-weight="bold" transform="matrix(2.18794 0 0 2.52124 -702.371 -465.956)" stroke="#FFAFCC" xml:space="preserve" text-anchor="start" font-family="Noto Sans JP" font-size="8" id="svg_233" y="306.2408" x="594.47121" stroke-width="0" fill="#426373">JS</text>
  <text font-weight="bold" transform="matrix(1.53094 0 0 1.66493 -283.673 -148.176)" stroke="#FFAFCC" xml:space="preserve" text-anchor="start" font-family="Noto Sans JP" font-size="8" id="svg_236" y="230.85699" x="532.88419" stroke-width="0" fill="#426373">GIT</text>
  <text xml:space="preserve" text-anchor="start" font-family="Noto Sans JP" font-size="8" id="svg_237" y="136.42772" x="219.99878" stroke-width="0" stroke="#FFAFCC" fill="#426373"/>
 </g>
</svg>