<?xml version="1.0" encoding="iso-8859-1"?>
<!-- Generator: Adobe Illustrator 19.0.0, SVG Export Plug-In . SVG Version: 6.00 Build 0)  -->
<svg version="1.1" id="Capa_1" xmlns="http://www.w3.org/2000/svg" xmlns:xlink="http://www.w3.org/1999/xlink" x="0px" y="0px"
	 viewBox="0 0 512 512" style="enable-background:new 0 0 512 512;" xml:space="preserve">
<circle style="fill:#FF00C3;" cx="256" cy="256" r="256"/>
<path style="fill:#DB05B3;" d="M512,256c0-14.25-1.184-28.223-3.422-41.839L406.75,112.333l-45.709,32.287l-32.287-32.287
	L79.009,343.832l50.3,50.3l-28.757,31.535l72.633,72.633C199.162,507.176,227.017,512,256,512C397.385,512,512,397.385,512,256z"/>
<polygon style="fill:#495959;" points="432.991,138.342 79.009,138.342 79.009,343.832 100.552,343.832 100.552,425.667 
	204.954,343.832 432.991,343.832 "/>
<rect x="255.57" y="138.34" style="fill:#3F4A4A;" width="177.42" height="205.49"/>
<g>
	<path style="fill:#FFFFFF;" d="M347,112.333v59.75h25.496c-0.811,16.516-4.807,32.65-11.7,47.542h36.868
		c5.353-15.233,8.455-31.246,9.085-47.542h0.001v-59.75C406.75,112.333,347,112.333,347,112.333z"/>
	<path style="fill:#FFFFFF;" d="M269.004,112.333v59.75H294.5c-0.811,16.516-4.807,32.65-11.7,47.542h36.868
		c5.353-15.233,8.455-31.246,9.085-47.542h0.001v-59.75C328.754,112.333,269.004,112.333,269.004,112.333z"/>
</g>
<g>
</g>
<g>
</g>
<g>
</g>
<g>
</g>
<g>
</g>
<g>
</g>
<g>
</g>
<g>
</g>
<g>
</g>
<g>
</g>
<g>
</g>
<g>
</g>
<g>
</g>
<g>
</g>
<g>
</g>
</svg>
