<?xml version="1.0" encoding="UTF-8"?>
<svg xmlns="http://www.w3.org/2000/svg" xmlns:xlink="http://www.w3.org/1999/xlink" width="800px" height="500px" viewBox="0 0 764 500" version="1.1">
<defs>
<filter id="alpha" filterUnits="objectBoundingBox" x="0%" y="0%" width="100%" height="100%">
  <feColorMatrix type="matrix" in="SourceGraphic" values="0 0 0 0 1 0 0 0 0 1 0 0 0 0 1 0 0 0 1 0"/>
</filter>
<mask id="mask0">
  <g filter="url(#alpha)">
<rect x="0" y="0" width="764" height="500" style="fill:rgb(0%,0%,0%);fill-opacity:0.101961;stroke:none;"/>
  </g>
</mask>
<clipPath id="clip1">
  <rect x="0" y="0" width="764" height="500"/>
</clipPath>
<g id="surface5" clip-path="url(#clip1)">
<path style=" stroke:none;fill-rule:nonzero;fill:rgb(0%,0%,0%);fill-opacity:1;" d="M 223.488281 425.109375 L 224.707031 442.132812 L 197.355469 442.132812 L 197.355469 425.109375 Z M 223.488281 425.109375 "/>
</g>
<mask id="mask1">
  <g filter="url(#alpha)">
<rect x="0" y="0" width="764" height="500" style="fill:rgb(0%,0%,0%);fill-opacity:0.101961;stroke:none;"/>
  </g>
</mask>
<clipPath id="clip2">
  <rect x="0" y="0" width="764" height="500"/>
</clipPath>
<g id="surface8" clip-path="url(#clip2)">
<path style=" stroke:none;fill-rule:nonzero;fill:rgb(0%,0%,0%);fill-opacity:1;" d="M 188.238281 430.578125 L 188.398438 430.546875 L 187.628906 437.875 L 172.433594 437.875 L 172.433594 430.578125 Z M 188.238281 430.578125 "/>
</g>
<mask id="mask2">
  <g filter="url(#alpha)">
<rect x="0" y="0" width="764" height="500" style="fill:rgb(0%,0%,0%);fill-opacity:0.101961;stroke:none;"/>
  </g>
</mask>
<clipPath id="clip3">
  <rect x="0" y="0" width="764" height="500"/>
</clipPath>
<g id="surface11" clip-path="url(#clip3)">
<path style=" stroke:none;fill-rule:nonzero;fill:rgb(0%,0%,0%);fill-opacity:1;" d="M 167.570312 448.210938 C 168.179688 450.035156 230.785156 447.601562 231.390625 446.996094 C 231.921875 446.234375 232.371094 445.417969 232.730469 444.5625 L 167.527344 444.5625 C 167.421875 445.777344 167.433594 447 167.570312 448.210938 Z M 167.570312 448.210938 "/>
</g>
<mask id="mask3">
  <g filter="url(#alpha)">
<rect x="0" y="0" width="764" height="500" style="fill:rgb(0%,0%,0%);fill-opacity:0.101961;stroke:none;"/>
  </g>
</mask>
<clipPath id="clip4">
  <rect x="0" y="0" width="764" height="500"/>
</clipPath>
<g id="surface14" clip-path="url(#clip4)">
<path style=" stroke:none;fill-rule:nonzero;fill:rgb(0%,0%,0%);fill-opacity:1;" d="M 148.488281 453.769531 C 146.707031 457.132812 144.621094 460.628906 144.265625 462.039062 C 144.03125 462.996094 141.394531 462.441406 137.246094 460.878906 C 128.933594 457.730469 114.515625 450.523438 101.066406 443.3125 C 100.449219 442.984375 99.859375 442.597656 99.3125 442.160156 C 99.40625 441.59375 99.511719 441.015625 99.628906 440.433594 C 102.933594 423.90625 97.742188 384.316406 98.539062 369.019531 L 104.667969 366.972656 L 116.90625 378.496094 L 116.90625 427.46875 C 116.90625 427.46875 148.585938 444.753906 150.746094 446.195312 C 151.847656 446.929688 150.328125 450.277344 148.488281 453.769531 Z M 148.488281 453.769531 "/>
</g>
<mask id="mask4">
  <g filter="url(#alpha)">
<rect x="0" y="0" width="764" height="500" style="fill:rgb(0%,0%,0%);fill-opacity:0.101961;stroke:none;"/>
  </g>
</mask>
<clipPath id="clip5">
  <rect x="0" y="0" width="764" height="500"/>
</clipPath>
<g id="surface17" clip-path="url(#clip5)">
<path style=" stroke:none;fill-rule:nonzero;fill:rgb(0%,0%,0%);fill-opacity:1;" d="M 114.386719 389.660156 L 112.949219 424.230469 L 151.109375 442.234375 L 115.828125 424.230469 Z M 114.386719 389.660156 "/>
</g>
</defs>
<g id="surface1">
<path style=" stroke:none;fill-rule:nonzero;fill:rgb(100%,72.156863%,72.156863%);fill-opacity:1;" d="M 127.8125 327.09375 C 127.8125 327.09375 137.109375 341.84375 133.789062 345.835938 C 130.46875 349.828125 158.695312 349.929688 158.695312 349.929688 C 158.695312 349.929688 154.457031 328.476562 155.703125 323.539062 Z M 127.8125 327.09375 "/>
<path style=" stroke:none;fill-rule:nonzero;fill:rgb(18.431373%,18.039216%,25.490196%);fill-opacity:1;" d="M 171.816406 303.285156 C 171.816406 319.386719 158.769531 332.441406 142.667969 332.441406 C 126.570312 332.441406 113.519531 319.386719 113.519531 303.285156 C 113.519531 287.179688 126.570312 274.128906 142.667969 274.128906 C 158.769531 274.128906 171.816406 287.179688 171.816406 303.285156 Z M 171.816406 303.285156 "/>
<path style=" stroke:none;fill-rule:nonzero;fill:rgb(100%,72.156863%,72.156863%);fill-opacity:1;" d="M 211.226562 461.320312 L 211.226562 478.601562 L 228.507812 475 L 227.066406 462.757812 Z M 211.226562 461.320312 "/>
<path style=" stroke:none;fill-rule:nonzero;fill:rgb(100%,72.156863%,72.156863%);fill-opacity:1;" d="M 272.425781 464.199219 L 320.667969 472.121094 L 308.425781 490.125 C 308.425781 490.125 274.585938 478.601562 265.945312 478.601562 C 257.308594 478.601562 272.425781 464.199219 272.425781 464.199219 Z M 272.425781 464.199219 "/>
<path style=" stroke:none;fill-rule:nonzero;fill:rgb(81.568627%,80.392157%,88.235294%);fill-opacity:1;" d="M 162.988281 429.628906 C 162.988281 429.628906 198.988281 387.859375 210.507812 390.019531 C 222.027344 392.179688 227.066406 405.144531 227.066406 405.144531 L 233.546875 469.242188 C 233.546875 469.242188 210.507812 471.402344 210.507812 469.242188 C 210.507812 467.078125 206.1875 420.988281 206.1875 420.988281 C 206.1875 420.988281 172.347656 495.886719 154.347656 446.195312 Z M 162.988281 429.628906 "/>
<path style=" stroke:none;fill-rule:nonzero;fill:rgb(81.568627%,80.392157%,88.235294%);fill-opacity:1;" d="M 104.667969 457.71875 C 104.667969 457.71875 105.386719 495.449219 126.988281 497.609375 C 148.585938 499.769531 172.347656 481.484375 172.347656 481.484375 L 211.226562 462.851562 C 211.226562 462.851562 257.308594 487.246094 270.988281 480.761719 C 270.988281 480.761719 285.386719 465.640625 276.027344 461.320312 C 266.667969 456.996094 275.304688 461.320312 275.304688 461.320312 L 219.867188 432.511719 C 219.867188 432.511719 209.066406 429.628906 190.347656 437.550781 C 171.628906 445.472656 146.425781 449.074219 146.425781 449.074219 Z M 104.667969 457.71875 "/>
<path style=" stroke:none;fill-rule:nonzero;fill:rgb(100%,72.156863%,72.156863%);fill-opacity:1;" d="M 162.265625 312.960938 C 162.265625 324.894531 152.597656 334.566406 140.667969 334.566406 C 128.738281 334.566406 119.066406 324.894531 119.066406 312.960938 C 119.066406 301.027344 128.738281 291.355469 140.667969 291.355469 C 152.597656 291.355469 162.265625 301.027344 162.265625 312.960938 Z M 162.265625 312.960938 "/>
<path style=" stroke:none;fill-rule:nonzero;fill:rgb(12.156863%,12.156863%,18.431373%);fill-opacity:1;" d="M 171.628906 373.457031 L 170.1875 403.703125 C 170.1875 403.703125 170.90625 443.3125 164.425781 446.195312 C 161.152344 447.648438 154.570312 450.574219 148.488281 453.769531 C 143.921875 456.160156 139.636719 458.695312 137.246094 460.878906 C 136.613281 461.417969 136.066406 462.050781 135.628906 462.757812 C 132.746094 467.800781 114.027344 467.078125 109.707031 463.480469 C 105.386719 459.878906 108.269531 467.800781 104.667969 469.242188 C 101.183594 470.636719 96.351562 459.214844 99.3125 442.160156 C 99.40625 441.59375 99.511719 441.015625 99.628906 440.433594 C 102.933594 423.90625 97.742188 384.316406 98.539062 369.019531 C 98.585938 367.851562 98.710938 366.6875 98.90625 365.535156 C 101.066406 354.011719 128.628906 330.5625 133.785156 340.550781 C 140.132812 352.878906 154.722656 341.617188 157.226562 336.007812 C 171.628906 335.285156 176.667969 352.570312 176.667969 352.570312 Z M 171.628906 373.457031 "/>
<path style=" stroke:none;fill-rule:nonzero;fill:rgb(18.431373%,18.039216%,25.490196%);fill-opacity:1;" d="M 229.945312 472.121094 C 229.945312 472.121094 218.425781 476.441406 214.828125 475.722656 C 211.226562 475.003906 207.628906 477.882812 207.628906 482.203125 C 207.628906 486.523438 203.308594 496.605469 209.785156 497.328125 C 216.265625 498.046875 242.90625 496.609375 248.667969 498.769531 C 248.667969 498.769531 274.585938 499.488281 272.425781 488.683594 C 270.265625 477.882812 259.464844 478.601562 259.464844 478.601562 C 259.464844 478.601562 229.945312 477.164062 229.945312 472.121094 Z M 229.945312 472.121094 "/>
<path style=" stroke:none;fill-rule:nonzero;fill:rgb(18.431373%,18.039216%,25.490196%);fill-opacity:1;" d="M 314.1875 474.28125 C 314.1875 474.28125 315.625 469.960938 317.785156 469.960938 C 319.945312 469.960938 337.226562 472.839844 339.386719 472.121094 C 341.546875 471.402344 366.746094 469.960938 362.425781 482.203125 C 358.105469 494.445312 343.707031 495.886719 343.707031 495.886719 C 343.707031 495.886719 317.785156 493.007812 314.1875 493.726562 C 310.585938 494.445312 297.625 493.726562 299.785156 490.125 C 301.945312 486.523438 315.625 480.042969 314.1875 474.28125 Z M 314.1875 474.28125 "/>
<path style=" stroke:none;fill-rule:nonzero;fill:rgb(24.705882%,23.921569%,33.72549%);fill-opacity:1;" d="M 248.648438 370.835938 L 252.597656 387.136719 C 252.640625 387.316406 252.636719 387.507812 252.578125 387.683594 L 234.660156 443.695312 C 234.515625 444.152344 234.070312 444.445312 233.589844 444.398438 C 233.113281 444.351562 232.734375 443.976562 232.679688 443.5 L 230.199219 421.679688 C 230.183594 421.535156 230.199219 421.386719 230.246094 421.25 L 246.691406 370.761719 C 246.832031 370.328125 247.242188 370.042969 247.699219 370.058594 C 248.152344 370.078125 248.539062 370.394531 248.648438 370.835938 Z M 248.648438 370.835938 "/>
<path style=" stroke:none;fill-rule:nonzero;fill:rgb(100%,100%,100%);fill-opacity:1;" d="M 247.195312 372.214844 L 250.84375 386.195312 L 235.039062 437.269531 L 231.390625 421.460938 Z M 247.195312 372.214844 "/>
<path style=" stroke:none;fill-rule:nonzero;fill:rgb(24.705882%,23.921569%,33.72549%);fill-opacity:1;" d="M 167.570312 448.210938 C 168.179688 450.035156 230.785156 447.601562 231.390625 446.996094 C 231.921875 446.234375 232.371094 445.417969 232.730469 444.5625 C 233.300781 443.347656 233.824219 442.132812 233.824219 442.132812 L 231.390625 422.445312 L 169.394531 420.242188 C 169.394531 420.242188 167.84375 436.925781 167.527344 444.5625 C 167.421875 445.777344 167.433594 447 167.570312 448.210938 Z M 167.570312 448.210938 "/>
<use xlink:href="#surface5" mask="url(#mask0)"/>
<use xlink:href="#surface8" mask="url(#mask1)"/>
<use xlink:href="#surface11" mask="url(#mask2)"/>
<path style=" stroke:none;fill-rule:nonzero;fill:rgb(18.431373%,18.039216%,25.490196%);fill-opacity:1;" d="M 155.621094 271.410156 C 155.621094 275.898438 151.984375 279.535156 147.5 279.535156 C 143.011719 279.535156 139.375 275.898438 139.375 271.410156 C 139.375 266.921875 143.011719 263.285156 147.5 263.285156 C 151.984375 263.285156 155.621094 266.921875 155.621094 271.410156 Z M 155.621094 271.410156 "/>
<path style=" stroke:none;fill-rule:nonzero;fill:rgb(18.431373%,18.039216%,25.490196%);fill-opacity:1;" d="M 145.054688 280.253906 C 145.054688 280.253906 136.757812 294.0625 117.457031 299.234375 C 98.15625 304.402344 117.300781 333.410156 117.300781 333.410156 C 117.300781 333.410156 110.339844 322.863281 120.378906 311.691406 C 130.417969 300.519531 146.574219 292.882812 145.054688 280.253906 Z M 145.054688 280.253906 "/>
<use xlink:href="#surface14" mask="url(#mask3)"/>
<path style=" stroke:none;fill-rule:nonzero;fill:rgb(100%,72.156863%,72.156863%);fill-opacity:1;" d="M 175.226562 414.507812 L 194.667969 424.589844 C 194.667969 424.589844 206.1875 412.347656 213.386719 421.707031 C 220.585938 431.070312 192.507812 433.953125 192.507812 433.953125 C 192.507812 433.953125 168.027344 428.191406 167.308594 420.269531 C 166.585938 412.347656 175.226562 414.507812 175.226562 414.507812 Z M 175.226562 414.507812 "/>
<path style=" stroke:none;fill-rule:nonzero;fill:rgb(100%,72.156863%,72.156863%);fill-opacity:1;" d="M 142.828125 441.152344 L 154.347656 444.035156 C 154.347656 444.035156 167.308594 428.191406 180.988281 433.953125 C 194.667969 439.714844 163.707031 451.234375 163.707031 451.234375 C 163.707031 451.234375 147.148438 459.878906 140.667969 452.675781 C 134.1875 445.472656 142.828125 441.152344 142.828125 441.152344 Z M 142.828125 441.152344 "/>
<path style=" stroke:none;fill-rule:nonzero;fill:rgb(12.156863%,12.156863%,18.431373%);fill-opacity:1;" d="M 168.027344 346.089844 C 168.746094 346.808594 176.667969 352.570312 176.667969 352.570312 C 176.667969 352.570312 178.828125 379.9375 175.949219 385.699219 C 173.066406 391.460938 170.90625 391.460938 173.066406 394.339844 C 175.226562 397.222656 178.105469 395.0625 175.226562 400.101562 C 172.347656 405.144531 169.46875 404.425781 171.628906 406.585938 C 173.789062 408.746094 173.066406 409.464844 173.066406 409.464844 L 181.707031 416.667969 C 181.707031 416.667969 176.40625 425.113281 169.695312 424.492188 C 162.988281 423.867188 157.226562 391.460938 157.226562 391.460938 Z M 168.027344 346.089844 "/>
<path style=" stroke:none;fill-rule:nonzero;fill:rgb(12.156863%,12.156863%,18.431373%);fill-opacity:1;" d="M 104.667969 363.375 L 98.1875 365.535156 C 98.1875 365.535156 80.90625 428.910156 101.066406 439.714844 C 121.226562 450.515625 143.546875 461.320312 144.265625 458.4375 C 144.988281 455.558594 152.90625 444.035156 150.746094 442.59375 C 148.585938 441.152344 116.90625 423.867188 116.90625 423.867188 L 116.90625 374.898438 Z M 104.667969 363.375 "/>
<use xlink:href="#surface17" mask="url(#mask4)"/>
<path style=" stroke:none;fill-rule:nonzero;fill:rgb(24.705882%,23.921569%,33.72549%);fill-opacity:1;" d="M 669.703125 115.113281 L 669.703125 171.636719 C 669.703125 172.722656 668.820312 173.601562 667.734375 173.605469 L 666.332031 173.605469 L 666.332031 468.054688 C 666.332031 485.023438 652.578125 498.777344 635.617188 498.777344 L 451.679688 498.777344 C 434.71875 498.777344 420.972656 485.019531 420.972656 468.054688 L 420.972656 183.933594 L 419.957031 183.933594 C 419.191406 183.933594 418.570312 183.3125 418.566406 182.546875 L 418.566406 150.378906 C 418.566406 149.609375 419.1875 148.984375 419.957031 148.984375 L 420.972656 148.984375 L 420.972656 136.867188 L 419.949219 136.867188 C 419.144531 136.863281 418.496094 136.210938 418.496094 135.40625 L 418.496094 103.675781 C 418.5 102.871094 419.148438 102.222656 419.949219 102.21875 L 420.972656 102.21875 L 420.972656 85.679688 L 419.933594 85.679688 C 419.589844 85.679688 419.261719 85.542969 419.019531 85.300781 C 418.777344 85.058594 418.640625 84.730469 418.640625 84.390625 L 418.640625 67.074219 C 418.640625 66.359375 419.21875 65.777344 419.933594 65.773438 L 420.972656 65.773438 L 420.972656 30.714844 C 420.976562 13.75 434.722656 0 451.679688 0 L 635.617188 0 C 652.578125 0 666.328125 13.75 666.332031 30.714844 L 666.332031 113.140625 L 667.734375 113.140625 C 668.820312 113.144531 669.703125 114.023438 669.703125 115.113281 Z M 669.703125 115.113281 "/>
<path style=" stroke:none;fill-rule:nonzero;fill:rgb(90.196078%,90.980392%,92.54902%);fill-opacity:1;" d="M 522.621094 15.753906 L 552.511719 15.753906 C 553.71875 15.753906 554.699219 16.734375 554.699219 17.941406 L 554.699219 20.527344 C 554.699219 21.734375 553.71875 22.714844 552.511719 22.714844 L 522.621094 22.714844 C 521.414062 22.714844 520.433594 21.734375 520.433594 20.527344 L 520.433594 17.941406 C 520.433594 16.734375 521.414062 15.753906 522.621094 15.753906 Z M 522.621094 15.753906 "/>
<path style=" stroke:none;fill-rule:nonzero;fill:rgb(90.196078%,90.980392%,92.54902%);fill-opacity:1;" d="M 567.769531 19.234375 C 567.769531 21.414062 566.003906 23.179688 563.824219 23.179688 C 561.644531 23.179688 559.878906 21.414062 559.878906 19.234375 C 559.878906 17.054688 561.644531 15.285156 563.824219 15.285156 C 566.003906 15.285156 567.769531 17.054688 567.769531 19.234375 Z M 567.769531 19.234375 "/>
<path style=" stroke:none;fill-rule:nonzero;fill:rgb(100%,100%,100%);fill-opacity:1;" d="M 651.625 36.789062 L 651.625 470.601562 C 651.617188 481.363281 642.894531 490.085938 632.136719 490.085938 L 456.0625 490.085938 C 450.894531 490.09375 445.933594 488.046875 442.277344 484.390625 C 438.621094 480.734375 436.570312 475.773438 436.578125 470.601562 L 436.578125 36.789062 C 436.578125 26.023438 445.300781 17.296875 456.0625 17.296875 L 482.417969 17.296875 L 482.417969 20.679688 C 482.417969 29.542969 489.601562 36.730469 498.460938 36.730469 L 588.007812 36.730469 C 596.871094 36.730469 604.054688 29.542969 604.054688 20.679688 L 604.054688 17.296875 L 632.136719 17.296875 C 642.902344 17.292969 651.628906 26.023438 651.625 36.789062 Z M 651.625 36.789062 "/>
<path style=" stroke:none;fill-rule:nonzero;fill:rgb(90.196078%,90.196078%,90.196078%);fill-opacity:1;" d="M 454.980469 302.890625 L 633.9375 302.890625 L 633.9375 326.125 L 454.980469 326.125 Z M 454.980469 302.890625 "/>
<path style=" stroke:none;fill-rule:nonzero;fill:rgb(90.196078%,90.196078%,90.196078%);fill-opacity:1;" d="M 454.980469 344.199219 L 633.9375 344.199219 L 633.9375 367.433594 L 454.980469 367.433594 Z M 454.980469 344.199219 "/>
<path style=" stroke:none;fill-rule:nonzero;fill:rgb(90.196078%,90.196078%,90.196078%);fill-opacity:1;" d="M 454.980469 385.507812 L 633.9375 385.507812 L 633.9375 408.742188 L 454.980469 408.742188 Z M 454.980469 385.507812 "/>
<path style=" stroke:none;fill-rule:nonzero;fill:rgb(12.156863%,12.156863%,18.431373%);fill-opacity:1;" d="M 631.355469 78.277344 C 631.355469 87.785156 623.652344 95.488281 614.148438 95.488281 C 604.644531 95.488281 596.941406 87.785156 596.941406 78.277344 C 596.941406 68.773438 604.644531 61.066406 614.148438 61.066406 C 623.652344 61.066406 631.355469 68.773438 631.355469 78.277344 Z M 631.355469 78.277344 "/>
<path style=" stroke:none;fill-rule:nonzero;fill:rgb(90.196078%,90.196078%,90.196078%);fill-opacity:1;" d="M 454.621094 135.9375 L 633.578125 135.9375 L 633.578125 254.699219 L 454.621094 254.699219 Z M 454.621094 135.9375 "/>
<path style=" stroke:none;fill-rule:nonzero;fill:rgb(24.705882%,23.921569%,33.72549%);fill-opacity:1;" d="M 525.882812 202.710938 C 531.109375 222.03125 549.003906 233.996094 549.003906 233.996094 C 549.003906 233.996094 558.429688 214.636719 553.207031 195.316406 C 547.980469 175.996094 530.082031 164.03125 530.082031 164.03125 C 530.082031 164.03125 520.65625 183.390625 525.882812 202.710938 Z M 525.882812 202.710938 "/>
<path style=" stroke:none;fill-rule:nonzero;fill:rgb(12.156863%,12.156863%,18.431373%);fill-opacity:1;" d="M 533.5625 198.558594 C 547.898438 212.519531 549.648438 233.980469 549.648438 233.980469 C 549.648438 233.980469 528.15625 232.804688 513.816406 218.84375 C 499.480469 204.886719 497.726562 183.421875 497.726562 183.421875 C 497.726562 183.421875 519.222656 184.597656 533.5625 198.558594 Z M 533.5625 198.558594 "/>
<path style=" stroke:none;fill-rule:nonzero;fill:rgb(24.705882%,23.921569%,33.72549%);fill-opacity:1;" d="M 573.417969 202.710938 C 568.191406 222.03125 550.292969 233.996094 550.292969 233.996094 C 550.292969 233.996094 540.867188 214.636719 546.09375 195.316406 C 551.320312 175.996094 569.214844 164.03125 569.214844 164.03125 C 569.214844 164.03125 578.640625 183.390625 573.417969 202.710938 Z M 573.417969 202.710938 "/>
<path style=" stroke:none;fill-rule:nonzero;fill:rgb(12.156863%,12.156863%,18.431373%);fill-opacity:1;" d="M 565.738281 198.558594 C 551.402344 212.519531 549.648438 233.980469 549.648438 233.980469 C 549.648438 233.980469 571.144531 232.804688 585.480469 218.84375 C 599.820312 204.886719 601.570312 183.421875 601.570312 183.421875 C 601.570312 183.421875 580.078125 184.597656 565.738281 198.558594 Z M 565.738281 198.558594 "/>
<path style=" stroke:none;fill-rule:nonzero;fill:rgb(24.705882%,23.921569%,33.72549%);fill-opacity:1;" d="M 0 497.832031 L 764 497.832031 L 764 499.761719 L 0 499.761719 Z M 0 497.832031 "/>
</g>
</svg>
