<?xml version="1.0" encoding="UTF-8"?>
<svg xmlns="http://www.w3.org/2000/svg" xmlns:xlink="http://www.w3.org/1999/xlink" width="800px" height="500px" viewBox="0 0 867 500" version="1.1">
<defs>
<clipPath id="clip1">
  <path d="M 497 67 L 518 67 L 518 112 L 497 112 Z M 497 67 "/>
</clipPath>
<clipPath id="clip2">
  <path d="M 528.703125 84.007812 L 521.933594 67.515625 L 431.664062 104.578125 C 427.484375 106.296875 424.753906 110.367188 424.753906 114.886719 L 424.753906 212.417969 L 442.582031 212.417969 L 442.582031 119.386719 Z M 528.703125 84.007812 "/>
</clipPath>
<clipPath id="clip3">
  <path d="M 466 67 L 487 67 L 487 125 L 466 125 Z M 466 67 "/>
</clipPath>
<clipPath id="clip4">
  <path d="M 528.703125 84.007812 L 521.933594 67.515625 L 431.664062 104.578125 C 427.484375 106.296875 424.753906 110.367188 424.753906 114.886719 L 424.753906 212.417969 L 442.582031 212.417969 L 442.582031 119.386719 Z M 528.703125 84.007812 "/>
</clipPath>
<clipPath id="clip5">
  <path d="M 436 67 L 457 67 L 457 120 L 436 120 Z M 436 67 "/>
</clipPath>
<clipPath id="clip6">
  <path d="M 528.703125 84.007812 L 521.933594 67.515625 L 431.664062 104.578125 C 427.484375 106.296875 424.753906 110.367188 424.753906 114.886719 L 424.753906 212.417969 L 442.582031 212.417969 L 442.582031 119.386719 Z M 528.703125 84.007812 "/>
</clipPath>
<clipPath id="clip7">
  <path d="M 424 122 L 468 122 L 468 142 L 424 142 Z M 424 122 "/>
</clipPath>
<clipPath id="clip8">
  <path d="M 528.703125 84.007812 L 521.933594 67.515625 L 431.664062 104.578125 C 427.484375 106.296875 424.753906 110.367188 424.753906 114.886719 L 424.753906 212.417969 L 442.582031 212.417969 L 442.582031 119.386719 Z M 528.703125 84.007812 "/>
</clipPath>
<clipPath id="clip9">
  <path d="M 424 149 L 468 149 L 468 169 L 424 169 Z M 424 149 "/>
</clipPath>
<clipPath id="clip10">
  <path d="M 528.703125 84.007812 L 521.933594 67.515625 L 431.664062 104.578125 C 427.484375 106.296875 424.753906 110.367188 424.753906 114.886719 L 424.753906 212.417969 L 442.582031 212.417969 L 442.582031 119.386719 Z M 528.703125 84.007812 "/>
</clipPath>
<clipPath id="clip11">
  <path d="M 424 175 L 468 175 L 468 196 L 424 196 Z M 424 175 "/>
</clipPath>
<clipPath id="clip12">
  <path d="M 528.703125 84.007812 L 521.933594 67.515625 L 431.664062 104.578125 C 427.484375 106.296875 424.753906 110.367188 424.753906 114.886719 L 424.753906 212.417969 L 442.582031 212.417969 L 442.582031 119.386719 Z M 528.703125 84.007812 "/>
</clipPath>
<linearGradient id="linear0" gradientUnits="userSpaceOnUse" x1="916.58831" y1="601.91813" x2="916.58831" y2="667.79812" gradientTransform="matrix(1,0,0,-1,-166.44591,702.02831)">
<stop offset="0" style="stop-color:rgb(0%,0%,0%);stop-opacity:0.121569;"/>
<stop offset="0.55" style="stop-color:rgb(0%,0%,0%);stop-opacity:0.0901961;"/>
<stop offset="1" style="stop-color:rgb(0%,0%,0%);stop-opacity:0.0196078;"/>
</linearGradient>
<filter id="alpha" filterUnits="objectBoundingBox" x="0%" y="0%" width="100%" height="100%">
  <feColorMatrix type="matrix" in="SourceGraphic" values="0 0 0 0 1 0 0 0 0 1 0 0 0 0 1 0 0 0 1 0"/>
</filter>
<mask id="mask0">
  <g filter="url(#alpha)">
<rect x="0" y="0" width="867" height="500" style="fill:rgb(0%,0%,0%);fill-opacity:0.2;stroke:none;"/>
  </g>
</mask>
<clipPath id="clip13">
  <rect x="0" y="0" width="867" height="500"/>
</clipPath>
<g id="surface5" clip-path="url(#clip13)">
<path style=" stroke:none;fill-rule:nonzero;fill:rgb(100%,100%,100%);fill-opacity:1;" d="M 677.8125 74.859375 C 677.835938 46.617188 695.5625 21.421875 722.136719 11.867188 C 748.714844 2.308594 778.429688 10.441406 796.433594 32.199219 C 783.382812 10.742188 759.429688 -1.621094 734.378906 0.183594 C 709.328125 1.984375 687.390625 17.644531 677.546875 40.75 C 667.703125 63.855469 671.605469 90.527344 687.664062 109.839844 C 681.203125 99.316406 677.792969 87.207031 677.8125 74.859375 Z M 677.8125 74.859375 "/>
</g>
</defs>
<g id="surface1">
<path style=" stroke:none;fill-rule:nonzero;fill:rgb(24.705882%,23.921569%,33.72549%);fill-opacity:1;" d="M 14.957031 192.035156 L 300.152344 192.035156 C 307.886719 192.035156 314.152344 198.304688 314.152344 206.035156 L 314.152344 228.273438 L 0.957031 228.273438 L 0.957031 206.035156 C 0.957031 198.304688 7.222656 192.035156 14.957031 192.035156 Z M 14.957031 192.035156 "/>
<path style=" stroke:none;fill-rule:nonzero;fill:rgb(97.647059%,65.882353%,14.509804%);fill-opacity:1;" d="M 294.738281 189.449219 C 293.332031 189.453125 291.933594 189.691406 290.601562 190.152344 C 289.65625 186.347656 286.019531 183.847656 282.128906 184.328125 C 278.238281 184.808594 275.320312 188.117188 275.328125 192.035156 C 275.328125 192.074219 275.335938 192.109375 275.335938 192.148438 C 274.367188 192.242188 273.410156 192.441406 272.480469 192.742188 C 271.949219 190.628906 270.558594 188.835938 268.644531 187.792969 C 271.128906 186.417969 273.097656 184.265625 274.246094 181.664062 C 280.578125 181.558594 285.679688 176.980469 285.679688 171.328125 C 285.679688 165.609375 280.464844 160.976562 274.03125 160.976562 C 272.625 160.980469 271.226562 161.21875 269.894531 161.679688 C 269.242188 158.90625 267.121094 156.714844 264.371094 155.976562 C 261.621094 155.234375 258.6875 156.0625 256.730469 158.132812 C 254.777344 160.207031 254.117188 163.183594 255.011719 165.886719 C 254.703125 166.101562 254.414062 166.34375 254.125 166.582031 C 252.660156 165.324219 250.757812 164.691406 248.832031 164.820312 C 246.777344 158.921875 240.789062 155.34375 234.621094 156.332031 C 228.449219 157.320312 223.878906 162.589844 223.769531 168.835938 C 222.730469 168.917969 221.703125 169.121094 220.714844 169.445312 C 220.601562 169.007812 220.453125 168.578125 220.265625 168.167969 C 222.332031 166.34375 223.53125 163.730469 223.558594 160.976562 C 223.558594 155.257812 218.34375 150.621094 211.910156 150.621094 C 210.5 150.628906 209.101562 150.867188 207.769531 151.324219 C 207.121094 148.554688 205 146.363281 202.25 145.621094 C 199.5 144.878906 196.5625 145.710938 194.609375 147.78125 C 192.652344 149.851562 191.992188 152.828125 192.890625 155.53125 C 189.585938 157.828125 187.542969 161.53125 187.359375 165.546875 C 187.25 165.644531 187.125 165.722656 187.019531 165.828125 C 187.214844 165.085938 187.316406 164.328125 187.320312 163.5625 C 187.320312 157.84375 182.105469 153.210938 175.671875 153.210938 C 174.265625 153.214844 172.867188 153.453125 171.535156 153.914062 C 170.882812 151.140625 168.761719 148.949219 166.011719 148.210938 C 163.261719 147.46875 160.328125 148.296875 158.371094 150.371094 C 156.414062 152.441406 155.757812 155.417969 156.652344 158.121094 C 153.164062 160.53125 151.082031 164.5 151.082031 168.738281 C 151.082031 172.980469 153.164062 176.949219 156.652344 179.359375 C 156.128906 180.863281 156.128906 182.5 156.652344 184.003906 C 155.355469 184.910156 154.234375 186.042969 153.339844 187.347656 C 152.351562 183.761719 148.945312 181.390625 145.238281 181.710938 C 141.53125 182.03125 138.578125 184.953125 138.222656 188.65625 C 137.183594 188.046875 136.0625 187.59375 134.894531 187.3125 C 136.988281 185.925781 138.640625 183.964844 139.648438 181.664062 C 145.980469 181.558594 151.082031 176.980469 151.082031 171.328125 C 151.082031 165.609375 145.867188 160.976562 139.433594 160.976562 C 138.027344 160.980469 136.628906 161.21875 135.296875 161.679688 C 134.644531 158.90625 132.523438 156.714844 129.773438 155.976562 C 127.023438 155.234375 124.089844 156.0625 122.132812 158.132812 C 120.179688 160.207031 119.519531 163.183594 120.414062 165.886719 C 120.25 166 120.097656 166.136719 119.9375 166.261719 C 119.535156 166.222656 119.144531 166.152344 118.726562 166.152344 C 117.320312 166.15625 115.921875 166.394531 114.589844 166.855469 C 114.539062 166.660156 114.460938 166.480469 114.394531 166.289062 C 114.902344 163.953125 114.289062 161.515625 112.730469 159.703125 C 111.171875 157.886719 108.855469 156.910156 106.46875 157.058594 C 104.621094 151.910156 99.738281 148.484375 94.269531 148.496094 C 88.800781 148.511719 83.933594 151.960938 82.109375 157.117188 C 80.289062 162.269531 81.90625 168.015625 86.148438 171.460938 C 85.257812 171.566406 84.378906 171.753906 83.527344 172.035156 C 82.90625 169.46875 81.011719 167.402344 78.511719 166.554688 C 76.011719 165.710938 73.253906 166.207031 71.203125 167.871094 C 68.867188 165.097656 65.410156 163.515625 61.78125 163.5625 C 60.375 163.570312 58.976562 163.808594 57.644531 164.269531 C 56.992188 161.496094 54.871094 159.304688 52.121094 158.5625 C 49.371094 157.824219 46.4375 158.652344 44.480469 160.722656 C 42.527344 162.792969 41.867188 165.769531 42.761719 168.472656 C 39.277344 170.886719 37.195312 174.855469 37.191406 179.09375 C 37.191406 179.132812 37.203125 179.171875 37.203125 179.210938 C 35.371094 178.933594 33.492188 179.136719 31.757812 179.796875 C 31.109375 177.027344 28.988281 174.835938 26.238281 174.09375 C 23.488281 173.351562 20.550781 174.183594 18.597656 176.253906 C 16.640625 178.324219 15.980469 181.300781 16.878906 184.003906 C 11.726562 187.492188 9.800781 194.160156 12.300781 199.855469 C 14.800781 205.554688 21.011719 208.652344 27.066406 207.222656 C 28.023438 212.765625 32.464844 217.046875 38.035156 217.800781 C 43.609375 218.558594 49.03125 215.617188 51.433594 210.53125 C 53.597656 215.113281 58.246094 218.003906 63.3125 217.917969 C 68.378906 217.832031 72.925781 214.789062 74.9375 210.136719 C 76.460938 210.113281 77.972656 209.820312 79.394531 209.273438 C 81.144531 214.289062 85.796875 217.722656 91.105469 217.910156 C 96.417969 218.101562 101.300781 215.015625 103.410156 210.136719 C 105.296875 210.097656 107.152344 209.640625 108.839844 208.792969 C 111.246094 213.050781 115.859375 215.578125 120.746094 215.3125 C 125.632812 215.050781 129.945312 212.039062 131.882812 207.546875 C 132.578125 207.53125 133.269531 207.457031 133.953125 207.332031 C 135.929688 212.132812 140.59375 215.285156 145.785156 215.332031 C 150.980469 215.378906 155.699219 212.3125 157.765625 207.546875 C 158.78125 207.519531 159.792969 207.371094 160.773438 207.105469 C 166.113281 208.59375 171.800781 206.421875 174.789062 201.75 C 173.101562 208.289062 176.726562 215.023438 183.109375 217.21875 C 189.492188 219.410156 196.492188 216.328125 199.179688 210.136719 C 201.066406 210.097656 202.921875 209.640625 204.609375 208.792969 C 207.019531 213.050781 211.632812 215.578125 216.515625 215.3125 C 221.402344 215.050781 225.714844 212.039062 227.652344 207.546875 C 229.539062 207.511719 231.394531 207.050781 233.082031 206.203125 C 234.925781 209.488281 238.117188 211.792969 241.8125 212.507812 C 245.507812 213.226562 249.332031 212.28125 252.269531 209.921875 C 253.1875 214.984375 257.027344 219.011719 262.039062 220.175781 C 267.046875 221.335938 272.269531 219.410156 275.320312 215.269531 C 278.46875 217.679688 282.554688 218.503906 286.390625 217.503906 C 290.230469 216.5 293.386719 213.78125 294.953125 210.136719 C 301.285156 210.03125 306.386719 205.453125 306.386719 199.800781 C 306.386719 194.082031 301.171875 189.449219 294.738281 189.449219 Z M 63.390625 184.105469 C 63.378906 184.167969 63.371094 184.230469 63.355469 184.292969 C 63.261719 184.292969 63.171875 184.269531 63.078125 184.269531 C 62.691406 184.28125 62.304688 184.320312 61.925781 184.386719 C 61.945312 184.339844 61.972656 184.296875 61.996094 184.25 C 62.464844 184.226562 62.929688 184.179688 63.390625 184.105469 Z M 171.535156 179.796875 C 171.496094 179.648438 171.429688 179.507812 171.386719 179.363281 C 173.359375 177.992188 174.917969 176.101562 175.886719 173.898438 C 179.328125 173.878906 182.597656 172.398438 184.882812 169.824219 C 184.785156 170.320312 184.734375 170.824219 184.730469 171.328125 C 184.742188 172.117188 184.875 172.902344 185.125 173.652344 C 182.902344 175.199219 181.222656 177.40625 180.3125 179.960938 C 177.5 178.863281 174.386719 178.804688 171.535156 179.796875 Z M 249.058594 180.765625 C 249.050781 180.605469 249.070312 180.441406 249.0625 180.285156 C 249.390625 180.28125 249.722656 180.261719 250.046875 180.21875 C 250.550781 181.890625 251.390625 183.445312 252.515625 184.785156 C 252.269531 184.851562 252.011719 184.894531 251.773438 184.976562 C 251.355469 183.3125 250.402344 181.832031 249.058594 180.765625 Z M 249.058594 180.765625 "/>
<path style=" stroke:none;fill-rule:nonzero;fill:rgb(24.705882%,23.921569%,33.72549%);fill-opacity:1;" d="M 27.027344 204.976562 C 19.609375 204.976562 12.515625 208.027344 7.410156 213.414062 C 2.308594 218.800781 -0.359375 226.046875 0.0390625 233.457031 L 17.566406 474.476562 C 18.335938 488.820312 30.191406 500.058594 44.554688 500.054688 L 270.550781 500.054688 C 284.917969 500.058594 296.773438 488.820312 297.539062 474.476562 L 315.066406 233.457031 C 315.464844 226.046875 312.800781 218.800781 307.695312 213.414062 C 302.59375 208.027344 295.5 204.976562 288.078125 204.976562 Z M 27.027344 204.976562 "/>
<path style=" stroke:none;fill-rule:nonzero;fill:rgb(12.156863%,12.156863%,18.431373%);fill-opacity:1;" d="M 39.78125 204.976562 L 55.3125 204.976562 L 55.3125 500.054688 L 39.78125 500.054688 Z M 39.78125 204.976562 "/>
<path style=" stroke:none;fill-rule:nonzero;fill:rgb(12.156863%,12.156863%,18.431373%);fill-opacity:1;" d="M 83.785156 204.976562 L 99.316406 204.976562 L 99.316406 500.054688 L 83.785156 500.054688 Z M 83.785156 204.976562 "/>
<path style=" stroke:none;fill-rule:nonzero;fill:rgb(12.156863%,12.156863%,18.431373%);fill-opacity:1;" d="M 127.789062 204.976562 L 143.316406 204.976562 L 143.316406 500.054688 L 127.789062 500.054688 Z M 127.789062 204.976562 "/>
<path style=" stroke:none;fill-rule:nonzero;fill:rgb(12.156863%,12.156863%,18.431373%);fill-opacity:1;" d="M 171.789062 204.976562 L 187.320312 204.976562 L 187.320312 500.054688 L 171.789062 500.054688 Z M 171.789062 204.976562 "/>
<path style=" stroke:none;fill-rule:nonzero;fill:rgb(12.156863%,12.156863%,18.431373%);fill-opacity:1;" d="M 215.792969 204.976562 L 231.324219 204.976562 L 231.324219 500.054688 L 215.792969 500.054688 Z M 215.792969 204.976562 "/>
<path style=" stroke:none;fill-rule:nonzero;fill:rgb(12.156863%,12.156863%,18.431373%);fill-opacity:1;" d="M 259.796875 204.976562 L 275.328125 204.976562 L 275.328125 500.054688 L 259.796875 500.054688 Z M 259.796875 204.976562 "/>
<path style=" stroke:none;fill-rule:nonzero;fill:rgb(24.705882%,23.921569%,33.72549%);fill-opacity:1;" d="M 528.703125 84.007812 L 521.933594 67.515625 L 431.664062 104.578125 C 427.484375 106.296875 424.753906 110.367188 424.753906 114.886719 L 424.753906 212.417969 L 442.582031 212.417969 L 442.582031 119.386719 Z M 528.703125 84.007812 "/>
<g clip-path="url(#clip1)" clip-rule="nonzero">
<g clip-path="url(#clip2)" clip-rule="nonzero">
<path style=" stroke:none;fill-rule:nonzero;fill:rgb(12.156863%,12.156863%,18.431373%);fill-opacity:1;" d="M 497.664062 49.597656 L 517.101562 49.597656 L 517.101562 111.167969 L 497.664062 111.167969 Z M 497.664062 49.597656 "/>
</g>
</g>
<g clip-path="url(#clip3)" clip-rule="nonzero">
<g clip-path="url(#clip4)" clip-rule="nonzero">
<path style=" stroke:none;fill-rule:nonzero;fill:rgb(12.156863%,12.156863%,18.431373%);fill-opacity:1;" d="M 466.882812 62.554688 L 486.324219 62.554688 L 486.324219 124.125 L 466.882812 124.125 Z M 466.882812 62.554688 "/>
</g>
</g>
<g clip-path="url(#clip5)" clip-rule="nonzero">
<g clip-path="url(#clip6)" clip-rule="nonzero">
<path style=" stroke:none;fill-rule:nonzero;fill:rgb(12.156863%,12.156863%,18.431373%);fill-opacity:1;" d="M 456.34375 115.21875 L 442.570312 119.265625 L 436.902344 53.648438 L 456.34375 53.648438 Z M 456.34375 115.21875 "/>
</g>
</g>
<g clip-path="url(#clip7)" clip-rule="nonzero">
<g clip-path="url(#clip8)" clip-rule="nonzero">
<path style=" stroke:none;fill-rule:nonzero;fill:rgb(12.156863%,12.156863%,18.431373%);fill-opacity:1;" d="M 406.113281 122.507812 L 467.683594 122.507812 L 467.683594 141.945312 L 406.113281 141.945312 Z M 406.113281 122.507812 "/>
</g>
</g>
<g clip-path="url(#clip9)" clip-rule="nonzero">
<g clip-path="url(#clip10)" clip-rule="nonzero">
<path style=" stroke:none;fill-rule:nonzero;fill:rgb(12.156863%,12.156863%,18.431373%);fill-opacity:1;" d="M 406.121094 149.246094 L 467.691406 149.246094 L 467.691406 168.6875 L 406.121094 168.6875 Z M 406.121094 149.246094 "/>
</g>
</g>
<g clip-path="url(#clip11)" clip-rule="nonzero">
<g clip-path="url(#clip12)" clip-rule="nonzero">
<path style=" stroke:none;fill-rule:nonzero;fill:rgb(12.156863%,12.156863%,18.431373%);fill-opacity:1;" d="M 406.113281 175.988281 L 467.683594 175.988281 L 467.683594 195.425781 L 406.113281 195.425781 Z M 406.113281 175.988281 "/>
</g>
</g>
<path style=" stroke:none;fill-rule:nonzero;fill:rgb(24.705882%,23.921569%,33.72549%);fill-opacity:1;" d="M 497.660156 500.058594 L 378.570312 500.058594 L 349.402344 208.386719 L 523.59375 208.386719 Z M 497.660156 500.058594 "/>
<path style=" stroke:none;fill-rule:nonzero;fill:rgb(24.705882%,23.921569%,33.72549%);fill-opacity:1;" d="M 337.253906 203.527344 L 536.550781 203.527344 L 536.550781 222.964844 L 337.253906 222.964844 Z M 337.253906 203.527344 "/>
<path style=" stroke:none;fill-rule:nonzero;fill:rgb(22.745098%,82.352941%,62.352941%);fill-opacity:1;" d="M 806.292969 67.171875 C 806.292969 104.164062 776.304688 134.148438 739.3125 134.148438 C 702.320312 134.148438 672.332031 104.164062 672.332031 67.171875 C 672.332031 30.179688 702.320312 0.191406 739.3125 0.191406 C 776.304688 0.191406 806.292969 30.179688 806.292969 67.171875 Z M 806.292969 67.171875 "/>
<path style=" stroke:none;fill-rule:nonzero;fill:url(#linear0);" d="M 783.660156 67.171875 L 716.621094 100.109375 L 716.621094 34.230469 Z M 783.660156 67.171875 "/>
<path style=" stroke:none;fill-rule:nonzero;fill:rgb(100%,100%,100%);fill-opacity:1;" d="M 779.632812 67.171875 L 720.640625 96.160156 L 720.640625 38.179688 Z M 779.632812 67.171875 "/>
<use xlink:href="#surface5" mask="url(#mask0)"/>
<path style=" stroke:none;fill-rule:nonzero;fill:rgb(24.705882%,23.921569%,33.72549%);fill-opacity:1;" d="M 727.546875 414.808594 C 725.921875 414.808594 724.605469 416.125 724.601562 417.753906 L 724.601562 497.113281 C 724.605469 498.738281 725.921875 500.054688 727.546875 500.054688 L 864.160156 500.054688 C 865.789062 500.054688 867.105469 498.738281 867.109375 497.113281 L 867.109375 417.753906 C 867.105469 416.125 865.789062 414.808594 864.160156 414.808594 Z M 727.546875 414.808594 "/>
<path style=" stroke:none;fill-rule:nonzero;fill:rgb(100%,39.607843%,51.764706%);fill-opacity:1;" d="M 742.816406 421.808594 C 739.785156 421.8125 737.332031 424.265625 737.328125 427.296875 L 737.328125 487.570312 C 737.332031 490.597656 739.785156 493.054688 742.816406 493.058594 L 848.894531 493.058594 C 851.925781 493.054688 854.378906 490.597656 854.382812 487.570312 L 854.382812 427.296875 C 854.378906 424.265625 851.925781 421.8125 848.894531 421.808594 Z M 742.816406 421.808594 "/>
<path style=" stroke:none;fill-rule:nonzero;fill:rgb(24.705882%,23.921569%,33.72549%);fill-opacity:1;" d="M 657.921875 440.949219 L 729.082031 440.949219 L 729.082031 457.433594 L 657.921875 457.433594 Z M 657.921875 440.949219 "/>
<path style=" stroke:none;fill-rule:nonzero;fill:rgb(24.705882%,23.921569%,33.72549%);fill-opacity:1;" d="M 534.09375 414.808594 C 532.46875 414.8125 531.152344 416.128906 531.148438 417.753906 L 531.148438 497.113281 C 531.152344 498.738281 532.46875 500.054688 534.09375 500.054688 L 670.710938 500.054688 C 672.335938 500.054688 673.652344 498.738281 673.652344 497.113281 L 673.652344 417.753906 C 673.652344 416.128906 672.335938 414.8125 670.710938 414.808594 Z M 534.09375 414.808594 "/>
<path style=" stroke:none;fill-rule:nonzero;fill:rgb(12.156863%,12.156863%,18.431373%);fill-opacity:1;" d="M 549.363281 421.808594 C 546.332031 421.808594 543.875 424.265625 543.871094 427.296875 L 543.871094 487.570312 C 543.875 490.601562 546.332031 493.054688 549.363281 493.058594 L 655.441406 493.058594 C 658.46875 493.054688 660.925781 490.601562 660.929688 487.570312 L 660.929688 427.296875 C 660.925781 424.265625 658.46875 421.808594 655.441406 421.808594 Z M 549.363281 421.808594 "/>
</g>
</svg>
